if (_typeface_js && _typeface_js.loadFace) _typeface_js.loadFace({"glyphs":{"S":{"x_min":74.328125,"x_max":605.703125,"ha":694,"o":"m 602 748 b 355 1022 602 893 559 1022 b 88 776 194 1022 87 950 b 288 497 89 676 98 616 b 518 233 430 408 518 369 b 348 55 518 118 462 55 b 164 281 172 55 164 170 l 74 281 b 344 -19 66 86 152 -19 b 605 247 515 -19 605 68 b 360 556 605 441 481 468 b 175 791 249 638 175 643 b 348 947 175 909 242 947 b 514 748 481 947 511 872 l 602 748 "},"¦":{"x_min":115.6875,"x_max":186.46875,"ha":308,"o":"m 115 -243 l 186 -243 l 186 243 l 115 243 l 115 -243 m 115 937 l 115 451 l 186 451 l 186 937 l 115 937 "},"/":{"x_min":-4.0625,"x_max":456,"ha":463,"o":"m 68 -152 l 456 1002 l 382 1002 l -4 -152 l 68 -152 "},"y":{"x_min":14,"x_max":516,"ha":540,"o":"m 151 -265 l 231 -265 l 516 701 l 434 701 l 272 126 l 269 126 l 102 701 l 14 701 l 231 -1 l 151 -265 "},"≈":{"x_min":50,"x_max":584.921875,"ha":650,"o":"m 549 567 b 443 473 518 506 488 473 b 335 515 403 473 375 493 b 206 567 305 533 262 567 b 50 446 139 567 84 520 l 86 420 b 199 512 115 470 146 512 b 305 470 236 512 269 494 b 437 419 360 438 393 419 b 584 539 510 419 557 473 l 549 567 m 549 366 b 443 272 518 305 489 272 b 335 315 403 272 375 293 b 206 366 305 332 263 366 b 50 245 139 366 84 321 l 86 219 b 199 312 113 268 145 312 b 305 269 236 312 269 293 b 437 219 361 237 393 219 b 584 338 510 219 556 272 l 549 366 "},"Ž":{"x_min":33.125,"x_max":571.890625,"ha":617,"o":"m 60 1002 l 60 927 l 482 927 l 33 98 l 33 0 l 571 0 l 571 74 l 123 74 l 567 903 l 567 1002 l 60 1002 m 303 1127 l 191 1269 l 103 1269 l 257 1075 l 348 1075 l 502 1269 l 415 1269 l 303 1127 "},"Á":{"x_min":18,"x_max":738,"ha":772,"o":"m 328 1002 l 18 0 l 105 0 l 182 263 l 567 263 l 646 0 l 738 0 l 431 1002 l 328 1002 m 208 338 l 374 905 l 377 905 l 544 338 l 208 338 m 291 1079 l 359 1079 l 554 1269 l 445 1269 l 291 1079 "},"g":{"x_min":57.28125,"x_max":522.78125,"ha":617,"o":"m 283 648 b 437 445 359 648 437 593 b 411 154 437 240 431 208 b 287 75 398 120 355 75 b 138 366 138 75 138 220 b 283 648 138 470 141 648 m 442 613 l 439 616 b 270 715 409 679 340 715 b 77 576 132 715 84 605 b 57 337 58 501 57 500 b 268 8 57 181 70 8 b 434 93 333 8 398 33 l 437 93 b 287 -204 437 -116 446 -204 b 158 -76 211 -204 152 -156 l 76 -76 b 276 -270 70 -147 104 -270 b 518 -25 472 -270 518 -179 l 518 565 b 522 702 518 601 520 636 l 442 702 l 442 613 "},"²":{"x_min":13.609375,"x_max":328.03125,"ha":369,"o":"m 328 448 l 87 448 b 326 862 292 730 326 777 b 170 983 326 961 240 983 b 16 831 98 983 16 948 l 80 831 b 170 927 80 893 107 927 b 258 851 217 927 258 916 b 13 450 258 773 145 640 l 13 393 l 328 393 l 328 448 "},"–":{"x_min":0,"x_max":680.5625,"ha":694,"o":"m 680 361 l 680 427 l 0 427 l 0 361 l 680 361 "},"ë":{"x_min":65.328125,"x_max":539,"ha":617,"o":"m 539 333 b 302 715 539 541 539 715 b 65 419 148 715 65 622 l 65 247 b 302 -13 65 34 183 -13 b 539 213 439 -13 529 44 l 453 213 b 302 52 454 119 404 52 b 147 279 172 52 147 181 l 147 333 l 539 333 m 147 400 b 302 648 147 555 171 648 b 457 400 432 648 457 555 l 147 400 m 151 793 l 238 793 l 238 933 l 151 933 l 151 793 m 366 793 l 453 793 l 453 933 l 366 933 l 366 793 "},"ƒ":{"x_min":26,"x_max":517,"ha":617,"o":"m 517 968 b 450 983 489 976 469 983 b 250 638 259 983 269 769 l 138 638 l 129 572 l 242 572 l 166 -38 b 36 -193 151 -155 122 -201 l 26 -265 b 64 -268 39 -266 49 -268 b 250 -34 219 -268 238 -134 l 327 572 l 453 572 l 463 638 l 336 638 l 355 779 b 453 908 363 838 374 908 b 504 900 468 908 484 907 l 517 968 "},"Î":{"x_min":-47.640625,"x_max":351.171875,"ha":308,"o":"m 107 1002 l 107 0 l 194 0 l 194 1002 l 107 1002 m 151 1217 l 264 1075 l 351 1075 l 197 1269 l 106 1269 l -47 1075 l 39 1075 l 151 1217 "},"e":{"x_min":65.328125,"x_max":539,"ha":617,"o":"m 539 333 b 302 715 539 541 539 715 b 65 419 148 715 65 622 l 65 247 b 302 -13 65 34 183 -13 b 539 213 439 -13 529 44 l 453 213 b 302 52 454 119 404 52 b 147 279 172 52 147 181 l 147 333 l 539 333 m 147 400 b 302 648 147 555 171 648 b 457 400 432 648 457 555 l 147 400 "},"Ã":{"x_min":17.859375,"x_max":737.890625,"ha":772,"o":"m 328 1002 l 17 0 l 104 0 l 182 263 l 567 263 l 646 0 l 737 0 l 431 1002 l 328 1002 m 208 338 l 374 905 l 377 905 l 544 338 l 208 338 m 217 1127 b 280 1202 222 1159 245 1202 b 375 1165 310 1202 341 1181 b 479 1127 409 1150 445 1127 b 559 1175 514 1127 541 1147 b 590 1269 578 1202 589 1238 l 539 1269 b 479 1194 535 1234 517 1194 b 386 1231 452 1194 420 1215 b 286 1269 354 1247 318 1269 b 201 1223 250 1269 222 1250 b 166 1127 181 1195 170 1161 l 217 1127 "},"J":{"x_min":29.9375,"x_max":503.609375,"ha":617,"o":"m 29 283 b 264 -19 29 138 49 -19 b 503 216 294 -19 503 -19 l 503 1002 l 416 1002 l 416 229 b 265 55 416 97 345 55 b 117 283 127 55 117 172 l 29 283 "},"»":{"x_min":68,"x_max":461,"ha":540,"o":"m 142 125 l 261 394 l 138 663 l 68 663 l 174 394 l 70 125 l 142 125 m 342 125 l 461 394 l 338 663 l 267 663 l 373 394 l 270 125 l 342 125 "},"∆":{"x_min":38.109375,"x_max":671.03125,"ha":724,"o":"m 38 0 l 671 0 l 671 58 l 398 987 l 313 987 l 38 58 l 38 0 m 115 68 l 285 638 b 349 870 304 715 340 809 l 355 870 b 426 623 368 802 406 700 l 589 68 l 115 68 "},"©":{"x_min":47.640625,"x_max":1041.25,"ha":1111,"o":"m 544 -19 b 1041 501 819 -19 1041 213 b 544 1022 1041 787 819 1022 b 47 501 270 1022 47 787 b 544 -19 47 213 270 -19 m 544 47 b 112 501 303 47 112 248 b 544 955 112 755 303 955 b 975 501 786 955 975 755 b 544 47 975 248 786 47 m 541 758 b 634 651 619 758 637 718 l 715 651 b 558 825 715 684 724 825 b 340 512 336 825 340 629 b 558 200 340 395 336 200 b 725 384 709 200 725 340 l 643 384 b 541 266 642 306 615 266 b 421 512 434 266 421 361 b 541 758 421 663 434 758 "},"˘":{"x_min":-7,"x_max":385,"ha":386,"o":"m -7 968 b 182 788 2 858 74 788 b 385 968 292 788 372 852 l 334 968 b 189 855 314 891 266 855 b 46 968 115 855 59 891 l -7 968 "},"≥":{"x_min":59.890625,"x_max":577.109375,"ha":650,"o":"m 66 773 l 66 704 l 515 465 l 515 462 l 66 223 l 66 154 l 574 434 l 574 493 l 66 773 m 577 43 l 577 101 l 59 101 l 59 43 l 577 43 "},"ò":{"x_min":65.25,"x_max":538.921875,"ha":617,"o":"m 302 -13 b 538 275 462 -13 538 93 l 538 426 b 302 715 538 608 462 715 b 65 426 141 715 65 608 l 65 275 b 302 -13 65 93 141 -13 m 302 648 b 457 351 436 648 457 533 b 302 52 457 168 436 52 b 146 351 167 52 146 168 b 302 648 146 533 167 648 m 389 777 l 235 968 l 126 968 l 321 777 l 389 777 "},"^":{"x_min":90,"x_max":515,"ha":617,"o":"m 273 983 l 90 413 l 154 413 l 299 877 l 302 877 l 450 413 l 515 413 l 331 983 l 273 983 "},"«":{"x_min":67.921875,"x_max":461,"ha":540,"o":"m 386 125 l 458 125 l 354 394 l 461 663 l 390 663 l 267 394 l 386 125 m 186 125 l 258 125 l 155 394 l 261 663 l 190 663 l 67 394 l 186 125 "},"D":{"x_min":102.078125,"x_max":671.03125,"ha":772,"o":"m 189 927 l 303 927 b 583 556 545 927 583 844 b 295 75 583 147 558 75 l 189 75 l 189 927 m 102 0 l 326 0 b 671 497 623 0 671 163 b 362 1002 671 838 637 1002 l 102 1002 l 102 0 "},"∙":{"x_min":100.71875,"x_max":201.4375,"ha":308,"o":"m 100 298 l 201 298 l 201 404 l 100 404 l 100 298 "},"ł":{"x_min":-23.140625,"x_max":325.3125,"ha":308,"o":"m 110 0 l 191 0 l 191 595 l 325 674 l 300 715 l 191 651 l 191 1002 l 110 1002 l 110 602 l -23 523 l 1 483 l 110 546 l 110 0 "},"ÿ":{"x_min":13.234375,"x_max":515.484375,"ha":540,"o":"m 150 -265 l 231 -265 l 515 701 l 433 701 l 271 126 l 269 126 l 101 701 l 13 701 l 231 -1 l 150 -265 m 113 793 l 201 793 l 201 933 l 113 933 l 113 793 m 329 793 l 416 793 l 416 933 l 329 933 l 329 793 "},"Ł":{"x_min":-40.828125,"x_max":503.609375,"ha":540,"o":"m 91 0 l 503 0 l 503 74 l 178 74 l 178 570 l 340 666 l 313 715 l 178 635 l 178 1002 l 91 1002 l 91 584 l -40 506 l -13 458 l 91 519 l 91 0 "},"í":{"x_min":63.96875,"x_max":326.671875,"ha":308,"o":"m 191 0 l 191 701 l 110 701 l 110 0 l 191 0 m 63 777 l 132 777 l 326 968 l 217 968 l 63 777 "},"ˆ":{"x_min":-10,"x_max":389,"ha":386,"o":"m 188 916 l 301 774 l 389 774 l 235 968 l 143 968 l -10 774 l 77 774 l 188 916 "},"w":{"x_min":14.359375,"x_max":895,"ha":926,"o":"m 203 0 l 305 0 l 449 600 l 452 600 l 603 0 l 705 0 l 895 701 l 813 701 l 659 87 l 656 87 l 504 701 l 403 701 l 258 87 l 255 87 l 101 701 l 14 701 l 203 0 "},"$":{"x_min":51.71875,"x_max":553.96875,"ha":617,"o":"m 276 560 b 149 759 205 604 149 657 b 276 907 149 857 200 897 l 276 560 m 330 429 b 466 215 405 382 466 325 b 330 59 466 109 421 65 l 330 429 m 330 -16 b 553 239 473 -6 553 71 b 330 529 553 411 436 470 l 330 907 b 461 717 438 899 461 831 l 548 717 b 330 982 553 889 488 977 l 330 1070 l 276 1070 l 276 982 b 62 749 152 968 62 897 b 276 461 62 584 171 522 l 276 59 b 138 265 163 70 138 136 l 51 265 b 276 -16 51 79 119 -6 l 276 -124 l 330 -124 l 330 -16 "},"∫":{"x_min":20.421875,"x_max":392,"ha":424,"o":"m 392 1156 b 332 1173 379 1165 353 1173 b 224 1120 291 1173 251 1154 b 163 834 179 1066 163 983 b 178 125 163 620 178 347 b 140 -115 178 -16 160 -81 b 84 -150 125 -137 104 -150 b 35 -136 63 -150 44 -140 l 20 -198 b 89 -218 32 -206 61 -218 b 200 -155 133 -218 175 -197 b 253 125 230 -106 253 -26 b 239 827 253 344 239 613 b 277 1076 239 966 249 1034 b 336 1109 294 1098 317 1109 b 377 1098 351 1109 367 1104 l 392 1156 "},"\\":{"x_min":-48.4375,"x_max":349,"ha":308,"o":"m 276 0 l 349 0 l 23 1002 l -48 1002 l 276 0 "},"Ì":{"x_min":-24.5,"x_max":238.1875,"ha":308,"o":"m 107 1002 l 107 0 l 194 0 l 194 1002 l 107 1002 m 238 1079 l 84 1269 l -24 1269 l 170 1079 l 238 1079 "},"µ":{"x_min":88.46875,"x_max":515.859375,"ha":617,"o":"m 434 701 l 434 206 b 284 52 434 158 394 52 b 170 219 166 52 170 200 l 170 701 l 88 701 l 88 -265 l 170 -265 l 170 11 b 269 -13 181 2 215 -13 b 442 77 345 -13 394 18 l 445 77 l 445 0 l 515 0 l 515 701 l 434 701 "},"Ç":{"x_min":77.578125,"x_max":623.390625,"ha":694,"o":"m 616 732 b 374 1022 616 822 612 1022 b 77 501 80 1022 77 772 b 313 -14 77 250 80 18 l 240 -113 l 268 -134 b 319 -120 280 -126 299 -120 b 386 -174 352 -120 386 -137 b 299 -238 386 -222 337 -238 b 212 -219 269 -238 240 -229 l 191 -260 b 313 -287 230 -276 270 -287 b 468 -173 393 -287 468 -263 b 362 -72 468 -108 415 -72 b 321 -79 347 -72 329 -76 l 318 -76 l 360 -17 b 374 -19 364 -19 368 -19 b 623 287 607 -19 623 215 l 530 287 b 374 56 529 158 487 56 b 164 501 167 56 164 235 b 374 947 164 768 167 947 b 529 732 499 947 529 843 l 616 732 "},"’":{"x_min":74,"x_max":228,"ha":308,"o":"m 74 751 l 146 751 l 228 1002 l 128 1002 l 74 751 "},"-":{"x_min":51.71875,"x_max":326.671875,"ha":386,"o":"m 326 330 l 326 409 l 51 409 l 51 330 l 326 330 "},"Q":{"x_min":81.296875,"x_max":737.71875,"ha":772,"o":"m 378 69 b 168 501 187 69 168 212 b 378 947 168 754 166 947 b 588 501 590 947 588 754 b 378 69 588 247 563 69 m 81 501 b 420 -5 81 183 83 -5 b 491 -2 449 -5 470 -4 b 549 0 510 -1 529 0 l 737 0 l 737 75 l 566 75 l 563 77 b 675 501 654 138 675 238 b 378 1022 675 695 698 1022 b 81 501 58 1022 81 695 "},"M":{"x_min":96.640625,"x_max":962.3125,"ha":1081,"o":"m 183 0 l 183 916 l 186 916 l 483 0 l 583 0 l 872 916 l 875 916 l 875 0 l 962 0 l 962 1002 l 823 1002 l 537 97 l 534 97 l 245 1002 l 96 1002 l 96 0 l 183 0 "},"C":{"x_min":77.578125,"x_max":623.390625,"ha":694,"o":"m 374 -19 b 623 287 607 -19 623 215 l 530 287 b 374 55 529 158 487 55 b 164 501 167 55 164 234 b 374 947 164 768 167 947 b 529 731 499 947 529 843 l 616 731 b 374 1022 616 822 612 1022 b 77 501 80 1022 77 772 b 374 -19 77 230 80 -19 "},"œ":{"x_min":65.328125,"x_max":917.390625,"ha":1003,"o":"m 302 -13 b 492 94 401 -13 445 8 b 680 -13 539 -2 615 -13 b 917 213 818 -13 907 44 l 831 213 b 680 52 833 119 782 52 b 525 279 551 52 525 181 l 525 333 l 917 333 b 680 715 917 541 917 715 b 496 593 594 715 530 677 b 302 715 460 677 401 715 b 65 441 66 715 65 530 l 65 275 b 302 -13 65 93 126 -13 m 302 52 b 163 145 189 52 170 129 b 147 351 149 180 147 306 b 302 648 147 558 167 648 b 457 351 436 648 457 558 b 441 145 457 306 454 180 b 302 52 434 129 415 52 m 525 400 b 680 648 525 555 549 648 b 835 400 811 648 835 555 l 525 400 "},"!":{"x_min":175.578125,"x_max":276.3125,"ha":463,"o":"m 175 0 l 276 0 l 276 105 l 175 105 l 175 0 m 261 236 l 273 1002 l 178 1002 l 190 236 l 261 236 "},"ç":{"x_min":51.921875,"x_max":472.765625,"ha":540,"o":"m 471 500 b 279 715 477 647 397 715 b 72 579 185 715 107 679 b 51 347 54 526 51 416 b 239 -10 51 184 51 11 l 166 -113 l 193 -134 b 245 -120 205 -126 224 -120 b 311 -174 277 -120 311 -137 b 224 -238 311 -222 262 -238 b 137 -219 194 -238 166 -229 l 117 -260 b 238 -287 155 -276 196 -287 b 393 -173 318 -287 393 -263 b 287 -72 393 -108 340 -72 b 246 -79 272 -72 254 -76 l 243 -76 l 290 -13 b 472 207 355 -12 479 22 l 390 207 b 265 52 386 122 373 52 b 139 347 139 52 139 221 b 158 568 139 440 147 536 b 268 648 175 619 217 648 b 389 500 362 648 393 587 l 471 500 "},"È":{"x_min":101.96875,"x_max":556.578125,"ha":617,"o":"m 101 1002 l 101 0 l 556 0 l 556 75 l 189 75 l 189 477 l 530 477 l 530 552 l 189 552 l 189 927 l 547 927 l 547 1002 l 101 1002 m 389 1079 l 235 1269 l 126 1269 l 321 1079 l 389 1079 "},"ﬁ":{"x_min":25.859375,"x_max":511.78125,"ha":617,"o":"m 502 0 l 502 701 l 420 701 l 420 0 l 502 0 m 511 897 l 511 1002 l 411 1002 l 411 897 l 511 897 m 136 0 l 217 0 l 217 634 l 356 634 l 356 701 l 217 701 l 217 820 b 296 933 217 861 217 933 l 357 933 l 357 1002 b 311 1008 337 1005 323 1008 b 136 819 145 1008 136 886 l 136 701 l 25 701 l 25 634 l 136 634 l 136 0 "},"{":{"x_min":83.03125,"x_max":394.71875,"ha":488,"o":"m 194 605 b 83 468 194 551 170 468 l 83 401 b 194 263 170 401 194 318 l 194 -23 b 394 -181 194 -163 287 -181 l 394 -115 b 281 -1 300 -115 281 -70 l 281 259 b 163 433 281 356 264 415 l 163 436 b 281 629 270 469 281 534 l 281 852 b 394 966 281 922 300 966 l 394 1033 b 194 875 287 1033 194 1015 l 194 605 "},"X":{"x_min":12,"x_max":667,"ha":694,"o":"m 32 1002 l 276 518 l 12 0 l 104 0 l 332 458 l 564 0 l 667 0 l 390 518 l 643 1002 l 551 1002 l 336 584 l 127 1002 l 32 1002 "},"ô":{"x_min":65.15625,"x_max":538.84375,"ha":617,"o":"m 302 -13 b 538 274 462 -13 538 93 l 538 426 b 302 715 538 608 462 715 b 65 426 141 715 65 608 l 65 274 b 302 -13 65 93 141 -13 m 302 648 b 457 351 436 648 457 533 b 302 52 457 168 436 52 b 146 351 167 52 146 168 b 302 648 146 533 167 648 m 302 916 l 414 774 l 502 774 l 348 968 l 257 968 l 103 774 l 190 774 l 302 916 "},"¼":{"x_min":66.21875,"x_max":831.171875,"ha":925,"o":"m 759 580 l 666 580 l 477 212 l 477 144 l 697 144 l 697 0 l 759 0 l 759 144 l 831 144 l 831 199 l 759 199 l 759 580 m 533 199 l 695 530 l 697 530 l 697 199 l 533 199 m 157 -40 l 750 1002 l 676 1002 l 81 -40 l 157 -40 m 66 822 b 173 904 105 847 141 873 l 173 392 l 235 392 l 235 973 l 177 973 b 66 883 146 937 107 909 l 66 822 "},"#":{"x_min":-11,"x_max":615,"ha":617,"o":"m 43 0 l 114 0 l 209 323 l 314 323 l 218 0 l 293 0 l 386 323 l 522 323 l 544 390 l 404 390 l 454 561 l 593 561 l 615 627 l 472 627 l 568 968 l 497 968 l 401 627 l 296 627 l 394 968 l 323 968 l 225 627 l 82 627 l 59 561 l 208 561 l 157 390 l 12 390 l -11 323 l 138 323 l 43 0 m 227 390 l 280 561 l 383 561 l 331 390 l 227 390 "},"Ê":{"x_min":102,"x_max":556.609375,"ha":617,"o":"m 102 1002 l 102 0 l 556 0 l 556 74 l 189 74 l 189 477 l 530 477 l 530 552 l 189 552 l 189 927 l 547 927 l 547 1002 l 102 1002 m 302 1217 l 415 1075 l 502 1075 l 348 1269 l 257 1269 l 103 1075 l 190 1075 l 302 1217 "},")":{"x_min":81.671875,"x_max":259.96875,"ha":308,"o":"m 81 1031 b 172 429 130 834 172 633 b 81 -183 172 222 137 15 l 148 -183 b 259 408 208 8 259 205 b 142 1031 259 622 210 830 l 81 1031 "},"Å":{"x_min":17.6875,"x_max":737.71875,"ha":772,"o":"m 328 1002 l 17 0 l 104 0 l 182 263 l 567 263 l 646 0 l 737 0 l 431 1002 l 328 1002 m 208 338 l 374 905 l 377 905 l 544 338 l 208 338 m 378 1323 b 251 1194 308 1323 251 1265 b 378 1063 251 1123 308 1063 b 503 1194 447 1063 503 1123 b 378 1323 503 1265 447 1323 m 378 1275 b 455 1194 420 1275 455 1237 b 378 1112 455 1152 419 1112 b 299 1194 336 1112 299 1152 b 378 1275 299 1238 334 1275 "},"ø":{"x_min":39.3125,"x_max":564.6875,"ha":617,"o":"m 443 533 b 457 351 455 483 457 418 b 440 146 457 307 454 180 b 302 52 434 129 414 52 b 183 108 243 52 206 72 l 443 533 m 160 165 b 146 351 148 215 146 278 b 302 649 146 558 167 649 b 421 592 361 649 402 633 l 160 165 m 140 36 b 302 -13 174 5 225 -13 b 538 275 477 -13 538 93 l 538 442 b 499 626 538 511 538 555 l 564 733 l 523 760 l 465 662 b 302 715 431 694 378 715 b 65 442 66 715 65 530 l 65 275 b 106 76 65 258 65 139 l 39 -33 l 80 -60 l 140 36 "},"â":{"x_min":51.9375,"x_max":523.125,"ha":617,"o":"m 433 230 b 263 52 433 138 356 52 b 139 197 178 52 139 118 b 433 358 139 368 316 354 l 433 230 m 438 0 l 523 0 b 514 176 514 81 514 126 l 514 529 b 301 715 514 708 370 715 b 72 527 181 715 79 662 l 159 527 b 294 648 159 611 219 648 b 433 483 403 648 433 586 l 433 424 b 51 193 294 413 51 438 b 241 -13 51 70 118 -13 b 435 86 325 -13 392 19 l 438 86 l 438 0 m 302 916 l 415 774 l 502 774 l 348 968 l 257 968 l 103 774 l 190 774 l 302 916 "},"}":{"x_min":83.03125,"x_max":394.71875,"ha":488,"o":"m 283 875 b 83 1033 283 1015 190 1033 l 83 966 b 196 852 176 966 196 922 l 196 629 b 314 436 196 534 206 469 l 314 433 b 196 259 213 415 196 356 l 196 -1 b 83 -115 196 -70 176 -115 l 83 -181 b 283 -23 190 -181 283 -163 l 283 263 b 394 401 283 318 307 401 l 394 468 b 283 605 307 468 283 551 l 283 875 "},"‰":{"x_min":13.609375,"x_max":1196.421875,"ha":1235,"o":"m 1033 -15 b 1196 220 1171 -15 1196 100 b 1033 458 1196 340 1180 458 b 869 220 886 458 869 340 b 1033 -15 869 100 894 -15 m 1033 51 b 940 218 943 51 940 156 b 1033 391 940 281 944 391 b 1125 218 1121 391 1125 281 b 1033 51 1125 156 1122 51 m 615 -15 b 778 220 754 -15 778 100 b 615 458 778 340 762 458 b 451 220 468 458 451 340 b 615 -15 451 100 476 -15 m 615 51 b 522 218 525 51 522 156 b 615 391 522 281 526 391 b 707 218 703 391 707 281 b 615 51 707 156 705 51 m 176 508 b 340 744 315 508 340 623 b 176 981 340 863 323 981 b 13 744 29 981 13 863 b 176 508 13 623 38 508 m 176 575 b 84 741 87 575 84 680 b 176 915 84 805 88 915 b 269 741 265 915 269 805 b 176 575 269 680 266 575 m 213 -56 l 627 1002 l 571 1002 l 155 -56 l 213 -56 "},"Ä":{"x_min":17.6875,"x_max":737.71875,"ha":772,"o":"m 328 1002 l 17 0 l 104 0 l 182 263 l 567 263 l 646 0 l 737 0 l 431 1002 l 328 1002 m 208 338 l 374 905 l 377 905 l 544 338 l 208 338 m 227 1094 l 314 1094 l 314 1234 l 227 1234 l 227 1094 m 442 1094 l 529 1094 l 529 1234 l 442 1234 l 442 1094 "},"¸":{"x_min":40.828125,"x_max":317.140625,"ha":386,"o":"m 40 -260 b 161 -287 78 -276 119 -287 b 317 -173 242 -287 317 -263 b 210 -72 317 -108 264 -72 b 170 -79 196 -72 178 -76 l 167 -76 l 223 0 l 171 0 l 89 -113 l 117 -134 b 168 -120 129 -126 148 -120 b 235 -174 201 -120 235 -137 b 148 -238 235 -222 186 -238 b 61 -219 118 -238 89 -229 l 40 -260 "},"a":{"x_min":51.71875,"x_max":522.671875,"ha":617,"o":"m 432 230 b 262 52 432 138 356 52 b 138 197 178 52 138 118 b 432 358 138 368 315 354 l 432 230 m 438 0 l 522 0 b 514 176 514 81 514 126 l 514 529 b 300 715 514 708 370 715 b 72 527 181 715 78 662 l 159 527 b 294 648 159 611 219 648 b 432 483 402 648 432 586 l 432 425 b 51 193 294 413 51 438 b 240 -13 51 70 118 -13 b 435 86 325 -13 392 19 l 438 86 l 438 0 "},"—":{"x_min":0,"x_max":1361.109375,"ha":1389,"o":"m 0 361 l 1361 361 l 1361 427 l 0 427 l 0 361 "},"=":{"x_min":27.21875,"x_max":577.109375,"ha":617,"o":"m 577 511 l 27 511 l 27 438 l 577 438 l 577 511 m 577 263 l 27 263 l 27 191 l 577 191 l 577 263 "},"N":{"x_min":104.8125,"x_max":726.828125,"ha":849,"o":"m 191 0 l 191 887 l 194 890 l 594 0 l 726 0 l 726 1002 l 639 1002 l 639 124 l 637 122 l 238 1002 l 104 1002 l 104 0 l 191 0 "},"˚":{"x_min":62.609375,"x_max":314.421875,"ha":386,"o":"m 189 1022 b 62 893 119 1022 62 963 b 189 762 62 822 119 762 b 314 893 258 762 314 822 b 189 1022 314 963 258 1022 m 189 973 b 266 893 231 973 266 936 b 189 811 266 851 230 811 b 110 893 147 811 110 851 b 189 973 110 937 145 973 "},"ú":{"x_min":88.453125,"x_max":515.84375,"ha":617,"o":"m 434 701 l 434 206 b 284 52 434 158 394 52 b 170 219 166 52 170 200 l 170 701 l 88 701 l 88 205 b 269 -13 88 91 127 -13 b 442 77 345 -13 394 18 l 445 77 l 445 0 l 515 0 l 515 701 l 434 701 m 215 777 l 283 777 l 477 968 l 368 968 l 215 777 "},"⁄":{"x_min":-222,"x_max":448,"ha":232,"o":"m -222 -40 l -145 -40 l 448 1002 l 373 1002 l -222 -40 "},"2":{"x_min":53.078125,"x_max":536.28125,"ha":617,"o":"m 536 75 l 148 75 b 534 781 465 561 534 640 b 292 983 534 947 402 983 b 55 731 182 983 55 925 l 137 731 b 292 908 137 831 189 908 b 447 762 367 908 447 891 b 53 77 447 633 264 411 l 53 0 l 536 0 l 536 75 "},"ü":{"x_min":88.46875,"x_max":515.859375,"ha":617,"o":"m 434 701 l 434 206 b 284 52 434 158 394 52 b 170 219 166 52 170 200 l 170 701 l 88 701 l 88 205 b 269 -13 88 91 127 -13 b 442 77 345 -13 394 18 l 445 77 l 445 0 l 515 0 l 515 701 l 434 701 m 151 793 l 238 793 l 238 933 l 151 933 l 151 793 m 366 793 l 453 793 l 453 933 l 366 933 l 366 793 "},"¯":{"x_min":12.25,"x_max":366.140625,"ha":386,"o":"m 12 900 l 12 833 l 366 833 l 366 900 l 12 900 "},"Z":{"x_min":33.171875,"x_max":571.828125,"ha":617,"o":"m 60 1002 l 60 927 l 482 927 l 33 98 l 33 0 l 571 0 l 571 75 l 123 75 l 567 904 l 567 1002 l 60 1002 "},"u":{"x_min":88.46875,"x_max":515.859375,"ha":617,"o":"m 434 701 l 434 206 b 284 52 434 158 394 52 b 170 219 166 52 170 200 l 170 701 l 88 701 l 88 205 b 269 -13 88 91 127 -13 b 442 77 345 -13 394 18 l 445 77 l 445 0 l 515 0 l 515 701 l 434 701 "},"˜":{"x_min":-23.140625,"x_max":401.53125,"ha":386,"o":"m 28 826 b 91 901 32 858 55 901 b 186 863 121 901 152 880 b 289 826 220 848 255 826 b 370 873 325 826 352 845 b 401 968 389 901 400 937 l 349 968 b 289 893 345 933 328 893 b 197 930 262 893 231 913 b 96 968 164 945 129 968 b 12 922 61 968 32 948 b -23 826 -8 894 -19 859 l 28 826 "},"Ó":{"x_min":81.671875,"x_max":675.109375,"ha":772,"o":"m 168 501 b 378 947 168 768 171 947 b 588 501 585 947 588 768 b 378 55 588 234 585 55 b 168 501 171 55 168 234 m 81 501 b 378 -19 81 230 84 -19 b 675 501 672 -19 675 230 b 378 1022 675 772 672 1022 b 81 501 84 1022 81 772 m 291 1079 l 359 1079 l 553 1269 l 445 1269 l 291 1079 "},"k":{"x_min":85.75,"x_max":518.578125,"ha":540,"o":"m 85 0 l 167 0 l 167 381 l 170 381 l 415 0 l 518 0 l 258 388 l 502 701 l 406 701 l 170 391 l 167 391 l 167 1002 l 85 1002 l 85 0 "},"ˇ":{"x_min":-10,"x_max":389,"ha":386,"o":"m 190 826 l 77 968 l -10 968 l 143 774 l 235 774 l 389 968 l 301 968 l 190 826 "},"Ù":{"x_min":91.1875,"x_max":665.578125,"ha":772,"o":"m 178 1002 l 91 1002 l 91 306 b 378 -19 91 48 224 -19 b 665 306 532 -19 665 48 l 665 1002 l 578 1002 l 578 372 b 378 55 578 241 578 55 b 178 372 178 55 178 241 l 178 1002 m 465 1079 l 311 1269 l 202 1269 l 397 1079 l 465 1079 "},"Ÿ":{"x_min":17.6875,"x_max":662.859375,"ha":694,"o":"m 295 0 l 382 0 l 382 416 l 662 1002 l 575 1002 l 340 504 l 115 1002 l 17 1002 l 295 416 l 295 0 m 189 1094 l 276 1094 l 276 1234 l 189 1234 l 189 1094 m 404 1094 l 491 1094 l 491 1234 l 404 1234 l 404 1094 "},"€":{"x_min":16.328125,"x_max":573.03125,"ha":617,"o":"m 32 447 l 16 372 l 102 372 l 102 245 b 345 -20 102 61 186 -20 b 571 225 499 -20 571 65 l 494 225 b 348 56 494 108 451 56 b 190 247 243 56 190 120 l 190 372 l 413 372 l 430 447 l 189 447 l 189 537 l 449 537 l 464 612 l 190 612 l 190 712 b 344 905 190 855 247 905 b 491 734 447 905 491 856 l 573 734 b 340 981 573 890 509 981 b 103 702 189 981 103 895 l 103 612 l 32 612 l 16 537 l 100 537 l 100 447 l 32 447 "},"¢":{"x_min":67.921875,"x_max":536.140625,"ha":617,"o":"m 209 93 b 155 325 149 136 155 255 b 289 666 155 441 144 666 b 338 657 307 666 321 662 l 209 93 m 233 -9 b 315 -15 261 -12 288 -15 b 536 268 451 -15 536 83 l 454 268 b 317 60 454 139 408 60 b 257 68 296 60 277 62 l 386 640 b 449 490 438 607 449 550 l 530 490 b 405 722 536 589 500 679 l 444 900 l 394 900 l 357 736 b 300 742 331 742 319 742 b 67 353 67 742 67 489 b 186 4 67 130 89 72 l 131 -216 l 186 -216 l 233 -9 "},"Ω":{"x_min":57.171875,"x_max":720.03125,"ha":794,"o":"m 221 70 l 57 70 l 57 0 l 313 0 l 313 51 b 149 506 230 127 149 312 b 390 905 149 733 242 905 b 627 508 552 905 626 687 b 462 51 627 301 549 133 l 462 0 l 720 0 l 720 70 l 553 70 l 553 75 b 705 526 630 161 705 323 b 393 977 705 781 582 977 b 70 520 210 977 70 802 b 221 75 70 326 140 169 l 221 70 "},"ß":{"x_min":91.1875,"x_max":622.03125,"ha":694,"o":"m 622 186 b 389 534 622 352 389 429 b 536 841 389 623 536 712 b 332 1022 536 958 434 1022 b 91 788 127 1022 91 877 l 91 0 l 172 0 l 172 761 b 322 955 172 922 250 955 b 454 847 382 955 454 919 b 307 515 454 729 307 655 b 540 173 307 383 540 316 b 430 52 540 104 503 52 b 318 173 348 52 319 94 l 236 173 b 413 -13 234 54 294 -13 b 622 186 540 -13 622 51 "},"é":{"x_min":65.078125,"x_max":538.75,"ha":617,"o":"m 538 333 b 301 715 538 541 538 715 b 65 419 148 715 65 622 l 65 247 b 301 -13 65 34 183 -13 b 538 213 439 -13 529 44 l 453 213 b 301 52 454 119 404 52 b 146 279 172 52 146 181 l 146 333 l 538 333 m 146 400 b 301 648 146 555 171 648 b 457 400 432 648 457 555 l 146 400 m 214 777 l 282 777 l 477 968 l 368 968 l 214 777 "},"s":{"x_min":59.859375,"x_max":468.21875,"ha":540,"o":"m 468 184 b 159 547 468 419 159 372 b 264 648 159 609 205 648 b 383 512 356 648 379 601 l 464 512 b 284 715 464 619 420 715 b 77 540 164 715 77 669 b 386 172 77 308 386 355 b 269 48 386 94 348 48 b 142 208 164 48 142 112 l 59 208 b 265 -13 58 59 117 -13 b 468 184 393 -13 468 52 "},"B":{"x_min":92.5625,"x_max":619.3125,"ha":694,"o":"m 179 556 l 179 927 l 352 927 b 511 758 421 927 511 925 b 347 556 511 644 472 556 l 179 556 m 370 0 b 619 279 534 0 619 98 b 455 520 619 405 585 493 l 455 523 b 598 762 579 558 598 641 b 366 1002 598 938 519 1002 l 92 1002 l 92 0 l 370 0 m 179 481 l 356 481 b 532 272 506 481 532 361 b 318 75 532 125 462 75 l 179 75 l 179 481 "},"…":{"x_min":176.9375,"x_max":1184.171875,"ha":1389,"o":"m 176 0 l 277 0 l 277 105 l 176 105 l 176 0 m 630 0 l 730 0 l 730 105 l 630 105 l 630 0 m 1083 0 l 1184 0 l 1184 105 l 1083 105 l 1083 0 "},"?":{"x_min":51.328125,"x_max":432.828125,"ha":540,"o":"m 284 236 l 284 366 b 432 790 284 525 432 527 b 238 1022 432 947 396 1022 b 51 790 95 1022 46 923 l 138 790 b 239 947 136 866 147 947 b 345 791 341 947 345 881 b 202 356 345 536 202 586 l 202 236 l 284 236 m 194 0 l 295 0 l 295 105 l 194 105 l 194 0 "},"H":{"x_min":98,"x_max":658.78125,"ha":772,"o":"m 185 0 l 185 477 l 571 477 l 571 0 l 658 0 l 658 1002 l 571 1002 l 571 552 l 185 552 l 185 1002 l 98 1002 l 98 0 l 185 0 "},"î":{"x_min":-47.640625,"x_max":351.171875,"ha":308,"o":"m 191 0 l 191 701 l 110 701 l 110 0 l 191 0 m 151 916 l 264 774 l 351 774 l 197 968 l 106 968 l -47 774 l 39 774 l 151 916 "},"c":{"x_min":51.71875,"x_max":472.578125,"ha":540,"o":"m 470 500 b 279 715 477 647 397 715 b 72 579 185 715 107 679 b 51 347 54 526 51 416 b 284 -13 51 173 51 -13 b 472 206 348 -13 479 18 l 390 206 b 265 52 386 122 372 52 b 138 347 138 52 138 220 b 157 568 138 440 147 536 b 268 648 175 619 217 648 b 389 500 362 648 393 587 l 470 500 "},"¶":{"x_min":96.640625,"x_max":574.390625,"ha":783,"o":"m 317 -131 l 387 -131 l 387 929 l 503 929 l 503 -131 l 574 -131 l 574 1004 l 336 1004 b 96 747 186 1001 96 929 b 317 497 96 612 186 495 l 317 -131 "},"−":{"x_min":27.21875,"x_max":577.109375,"ha":617,"o":"m 577 387 l 27 387 l 27 315 l 577 315 l 577 387 "},"≠":{"x_min":59.9375,"x_max":577.046875,"ha":650,"o":"m 450 652 l 408 672 l 348 534 l 59 534 l 59 477 l 326 477 l 251 302 l 59 302 l 59 247 l 228 247 l 178 129 l 220 109 l 280 247 l 577 247 l 577 302 l 302 302 l 378 477 l 577 477 l 577 534 l 400 534 l 450 652 "},"•":{"x_min":167.421875,"x_max":657.421875,"ha":842,"o":"m 657 500 b 411 750 657 637 544 750 b 167 500 279 750 167 637 b 411 250 167 365 279 250 b 657 500 544 250 657 365 "},"¥":{"x_min":-4.078125,"x_max":608.421875,"ha":617,"o":"m 259 293 l 59 293 l 59 218 l 259 218 l 259 0 l 341 0 l 341 218 l 544 218 l 544 293 l 341 293 l 341 383 l 544 383 l 544 458 l 368 458 l 608 968 l 514 968 l 302 504 l 99 968 l -4 968 l 234 458 l 59 458 l 59 383 l 259 383 l 259 293 "},"(":{"x_min":42.1875,"x_max":220.5,"ha":308,"o":"m 159 1031 b 42 408 91 830 42 622 b 153 -183 42 205 93 8 l 220 -183 b 129 429 164 15 129 222 b 220 1031 129 633 171 834 l 159 1031 "},"U":{"x_min":91.1875,"x_max":665.578125,"ha":772,"o":"m 178 1002 l 91 1002 l 91 306 b 378 -19 91 48 224 -19 b 665 306 532 -19 665 48 l 665 1002 l 578 1002 l 578 372 b 378 55 578 241 578 55 b 178 372 178 55 178 241 l 178 1002 "},"◊":{"x_min":64,"x_max":587,"ha":665,"o":"m 587 480 l 359 1011 l 294 1011 l 64 480 l 291 -48 l 356 -48 l 587 480 m 513 479 l 348 97 b 328 26 340 77 330 43 l 322 26 b 303 98 320 43 314 69 l 137 483 l 302 861 b 324 934 313 888 318 915 l 326 934 b 348 861 330 916 339 884 l 513 479 "},"Ñ":{"x_min":104.8125,"x_max":726.828125,"ha":849,"o":"m 191 0 l 191 887 l 194 890 l 594 0 l 726 0 l 726 1002 l 639 1002 l 639 124 l 637 122 l 238 1002 l 104 1002 l 104 0 l 191 0 m 255 1127 b 318 1202 259 1159 283 1202 b 413 1165 348 1202 379 1181 b 517 1127 447 1149 483 1127 b 597 1174 552 1127 579 1146 b 628 1269 616 1202 627 1238 l 577 1269 b 517 1194 573 1234 555 1194 b 424 1231 490 1194 458 1215 b 323 1269 392 1246 356 1269 b 239 1223 288 1269 259 1249 b 204 1127 219 1195 208 1160 l 255 1127 "},"F":{"x_min":92.5625,"x_max":507.6875,"ha":540,"o":"m 92 0 l 179 0 l 179 477 l 484 477 l 484 552 l 179 552 l 179 927 l 507 927 l 507 1002 l 92 1002 l 92 0 "},"­":{"x_min":51.71875,"x_max":326.671875,"ha":386,"o":"m 326 330 l 326 409 l 51 409 l 51 330 l 326 330 "},":":{"x_min":100.71875,"x_max":201.4375,"ha":308,"o":"m 100 0 l 201 0 l 201 105 l 100 105 l 100 0 m 100 595 l 201 595 l 201 701 l 100 701 l 100 595 "},"Û":{"x_min":90.71875,"x_max":665.109375,"ha":772,"o":"m 177 1002 l 90 1002 l 90 306 b 377 -19 90 48 224 -19 b 665 306 531 -19 665 48 l 665 1002 l 578 1002 l 578 371 b 377 55 578 241 578 55 b 177 371 177 55 177 241 l 177 1002 m 377 1217 l 490 1075 l 578 1075 l 424 1269 l 333 1269 l 179 1075 l 266 1075 l 377 1217 "},"*":{"x_min":78.921875,"x_max":525.078125,"ha":617,"o":"m 302 847 l 220 1022 l 159 983 l 263 827 l 78 842 l 78 769 l 263 788 l 156 630 l 221 590 l 302 766 l 382 590 l 447 630 l 340 788 l 525 769 l 525 842 l 340 827 l 444 983 l 383 1022 l 302 847 "},"†":{"x_min":69.421875,"x_max":534.921875,"ha":617,"o":"m 343 695 l 534 695 l 534 762 l 343 762 l 343 1002 l 261 1002 l 261 762 l 69 762 l 69 695 l 261 695 l 261 0 l 343 0 l 343 695 "},"∕":{"x_min":-222,"x_max":448,"ha":232,"o":"m -222 -40 l -145 -40 l 448 1002 l 373 1002 l -222 -40 "},"°":{"x_min":68.046875,"x_max":476.390625,"ha":556,"o":"m 476 775 b 272 983 476 888 383 983 b 68 775 159 983 66 888 b 272 566 68 659 159 566 b 476 775 383 566 476 659 m 421 775 b 272 622 421 690 353 622 b 122 775 189 622 122 690 b 270 927 121 858 189 927 b 421 775 353 927 421 858 "},"V":{"x_min":12,"x_max":667,"ha":694,"o":"m 340 105 l 337 105 l 104 1002 l 12 1002 l 285 0 l 394 0 l 667 1002 l 582 1002 l 340 105 "},"å":{"x_min":51.71875,"x_max":522.671875,"ha":617,"o":"m 432 230 b 262 52 432 138 356 52 b 138 197 178 52 138 118 b 432 358 138 368 315 354 l 432 230 m 438 0 l 522 0 b 514 176 514 81 514 126 l 514 529 b 300 715 514 708 370 715 b 72 527 181 715 78 662 l 159 527 b 294 648 159 611 219 648 b 432 483 402 648 432 586 l 432 425 b 51 193 294 413 51 438 b 240 -13 51 70 118 -13 b 435 86 325 -13 392 19 l 438 86 l 438 0 m 302 1022 b 175 893 232 1022 175 963 b 302 762 175 822 232 762 b 427 893 371 762 427 822 b 302 1022 427 963 371 1022 m 302 973 b 379 893 344 973 379 936 b 302 811 379 851 343 811 b 223 893 259 811 223 851 b 302 973 223 937 258 973 "}," ":{"x_min":0,"x_max":0,"ha":308},"0":{"x_min":59.890625,"x_max":544.4375,"ha":617,"o":"m 147 673 b 302 908 147 891 240 908 b 457 673 363 908 457 891 l 457 294 b 302 59 457 76 363 59 b 147 294 240 59 147 76 l 147 673 m 302 983 b 59 588 59 983 59 770 l 59 379 b 302 -15 59 197 59 -15 b 544 379 544 -15 544 197 l 544 588 b 302 983 544 770 544 983 "},"”":{"x_min":87,"x_max":442,"ha":540,"o":"m 87 751 l 159 751 l 240 1002 l 141 1002 l 87 751 m 288 751 l 360 751 l 442 1002 l 342 1002 l 288 751 "},"¾":{"x_min":14.78125,"x_max":831.640625,"ha":925,"o":"m 759 580 l 666 580 l 477 212 l 477 144 l 698 144 l 698 0 l 759 0 l 759 144 l 831 144 l 831 200 l 759 200 l 759 580 m 533 200 l 695 530 l 698 530 l 698 200 l 533 200 m 194 -40 l 788 1002 l 713 1002 l 118 -40 l 194 -40 m 136 672 b 265 540 236 680 265 640 b 171 440 265 488 242 440 b 83 536 111 440 81 472 l 14 536 b 179 384 10 431 72 384 b 333 551 280 384 333 444 b 230 697 333 619 315 684 l 230 700 b 326 841 308 712 326 773 b 166 983 326 944 269 983 b 23 831 69 983 17 918 l 91 831 b 172 927 88 893 112 927 b 258 834 230 927 258 887 b 136 727 258 748 227 720 l 136 672 "},"@":{"x_min":47.453125,"x_max":1041.0625,"ha":1111,"o":"m 453 269 b 344 433 383 269 344 327 b 586 780 344 565 443 780 b 693 679 653 780 693 727 b 606 387 693 633 646 477 b 453 269 579 326 537 269 m 733 751 b 587 847 704 815 654 847 b 262 416 386 847 262 609 b 434 202 262 300 319 202 b 602 272 493 202 546 220 b 723 202 619 213 661 202 b 1041 583 868 202 1041 352 b 544 1022 1041 908 808 1022 b 47 501 270 1022 47 787 b 544 -19 47 213 270 -19 b 1030 244 756 -19 940 76 l 958 244 b 544 47 868 119 717 47 b 112 501 303 47 112 248 b 544 955 112 755 303 955 b 975 562 672 955 975 930 b 738 269 975 477 900 269 b 666 301 696 269 666 279 b 685 383 666 325 677 359 l 828 819 l 753 819 l 733 751 "},"ö":{"x_min":65.328125,"x_max":539,"ha":617,"o":"m 302 -13 b 539 275 462 -13 539 93 l 539 426 b 302 715 539 608 462 715 b 65 426 141 715 65 608 l 65 275 b 302 -13 65 93 141 -13 m 302 648 b 457 351 436 648 457 533 b 302 52 457 168 436 52 b 147 351 167 52 147 168 b 302 648 147 533 167 648 m 151 793 l 238 793 l 238 933 l 151 933 l 151 793 m 366 793 l 453 793 l 453 933 l 366 933 l 366 793 "},"i":{"x_min":100.71875,"x_max":201.4375,"ha":308,"o":"m 191 0 l 191 701 l 110 701 l 110 0 l 191 0 m 201 897 l 201 1002 l 100 1002 l 100 897 l 201 897 "},"≤":{"x_min":59.890625,"x_max":577.109375,"ha":650,"o":"m 574 154 l 574 223 l 123 463 l 123 466 l 574 704 l 574 773 l 65 493 l 65 434 l 574 154 m 577 43 l 577 101 l 59 101 l 59 43 l 577 43 "},"Õ":{"x_min":81.671875,"x_max":675.109375,"ha":772,"o":"m 168 501 b 378 947 168 768 171 947 b 588 501 585 947 588 768 b 378 55 588 234 585 55 b 168 501 171 55 168 234 m 81 501 b 378 -19 81 230 84 -19 b 675 501 672 -19 675 230 b 378 1022 675 772 672 1022 b 81 501 84 1022 81 772 m 217 1127 b 280 1202 221 1159 245 1202 b 375 1165 310 1202 341 1181 b 479 1127 409 1150 445 1127 b 559 1175 514 1127 541 1147 b 590 1269 578 1202 589 1238 l 539 1269 b 479 1194 534 1234 517 1194 b 386 1231 451 1194 420 1215 b 285 1269 353 1247 318 1269 b 201 1223 250 1269 221 1250 b 166 1127 181 1195 170 1161 l 217 1127 "},"þ":{"x_min":85.75,"x_max":550.21875,"ha":617,"o":"m 167 413 b 313 648 167 587 259 648 b 468 348 464 648 468 512 b 313 52 468 184 464 52 b 167 288 238 52 167 129 l 167 413 m 85 -265 l 167 -265 l 167 79 l 170 77 b 337 -13 208 15 262 -13 b 549 351 537 -13 549 197 b 344 715 549 476 567 715 b 170 618 279 715 210 686 l 167 616 l 167 1002 l 85 1002 l 85 -265 "},"]":{"x_min":44.921875,"x_max":234.109375,"ha":308,"o":"m 234 1033 l 44 1033 l 44 966 l 152 966 l 152 -115 l 44 -115 l 44 -181 l 234 -181 l 234 1033 "},"m":{"x_min":81.671875,"x_max":824.828125,"ha":926,"o":"m 163 451 b 306 648 163 543 202 648 b 412 501 386 648 411 570 l 412 0 l 494 0 l 494 451 b 637 648 494 543 533 648 b 743 501 717 648 741 570 l 743 0 l 824 0 l 824 522 b 646 715 820 634 760 715 b 477 605 570 715 511 675 b 321 715 454 675 392 715 b 157 615 245 715 190 672 l 155 615 l 155 702 l 81 702 l 81 0 l 163 0 l 163 451 "},"8":{"x_min":54.4375,"x_max":549.890625,"ha":617,"o":"m 302 538 b 151 729 187 538 151 618 b 302 916 151 843 181 916 b 453 729 423 916 453 843 b 302 538 453 618 416 538 m 400 509 b 540 741 518 534 540 631 b 302 983 540 830 533 983 b 63 741 70 983 63 830 b 201 509 63 631 85 534 l 204 506 b 54 262 74 477 54 380 b 302 -15 54 136 87 -15 b 549 262 517 -15 549 136 b 400 506 549 380 529 477 l 400 509 m 302 51 b 141 251 179 51 141 138 b 302 472 141 355 152 472 b 462 251 451 472 462 355 b 302 51 462 138 424 51 "},"ž":{"x_min":29,"x_max":428,"ha":463,"o":"m 38 0 l 414 0 l 414 66 l 128 66 l 407 631 l 407 701 l 54 701 l 54 634 l 324 634 l 38 68 l 38 0 m 229 826 l 116 968 l 29 968 l 182 774 l 274 774 l 428 968 l 340 968 l 229 826 "},"R":{"x_min":92.1875,"x_max":602.609375,"ha":694,"o":"m 343 486 b 505 250 533 486 504 293 b 519 0 507 195 511 29 l 602 0 b 593 116 599 38 593 77 b 447 520 593 475 584 491 l 447 523 b 599 762 579 554 599 637 b 363 1002 599 938 552 1002 l 92 1002 l 92 0 l 179 0 l 179 486 l 343 486 m 179 927 l 357 927 b 512 763 459 927 512 901 b 320 561 512 595 451 561 l 179 561 l 179 927 "},"á":{"x_min":52.0625,"x_max":523.015625,"ha":617,"o":"m 433 230 b 263 52 433 138 356 52 b 139 197 178 52 139 118 b 433 358 139 368 316 354 l 433 230 m 438 0 l 523 0 b 514 176 514 81 514 126 l 514 529 b 301 715 514 708 370 715 b 72 527 181 715 79 662 l 159 527 b 294 648 159 611 219 648 b 433 483 403 648 433 586 l 433 425 b 52 193 294 413 52 438 b 241 -13 52 70 118 -13 b 435 86 325 -13 392 19 l 438 86 l 438 0 m 215 777 l 283 777 l 478 968 l 369 968 l 215 777 "},"×":{"x_min":27,"x_max":577,"ha":617,"o":"m 302 300 l 526 71 l 577 122 l 352 351 l 577 580 l 526 632 l 302 402 l 77 632 l 27 580 l 251 351 l 27 122 l 77 71 l 302 300 "},"o":{"x_min":65.328125,"x_max":539,"ha":617,"o":"m 302 -13 b 539 275 462 -13 539 93 l 539 426 b 302 715 539 608 462 715 b 65 426 141 715 65 608 l 65 275 b 302 -13 65 93 141 -13 m 302 648 b 457 351 436 648 457 533 b 302 52 457 168 436 52 b 147 351 167 52 147 168 b 302 648 147 533 167 648 "},"5":{"x_min":72,"x_max":556.703125,"ha":617,"o":"m 330 619 b 163 546 255 619 217 598 l 163 892 l 518 892 l 518 967 l 81 967 l 81 442 l 160 442 b 308 544 174 509 247 544 b 469 302 460 544 469 423 b 311 59 469 187 454 59 b 159 231 198 59 156 121 l 72 231 b 313 -15 68 62 151 -15 b 556 302 517 -15 556 141 b 330 619 556 419 563 619 "},"õ":{"x_min":65.328125,"x_max":539,"ha":617,"o":"m 302 -13 b 539 275 462 -13 539 93 l 539 426 b 302 715 539 608 462 715 b 65 426 141 715 65 608 l 65 275 b 302 -13 65 93 141 -13 m 302 648 b 457 351 436 648 457 533 b 302 52 457 168 436 52 b 147 351 167 52 147 168 b 302 648 147 533 167 648 m 141 826 b 204 901 145 858 168 901 b 299 863 234 901 265 880 b 402 826 333 848 368 826 b 483 873 438 826 465 845 b 514 968 502 901 513 937 l 462 968 b 402 893 458 933 441 893 b 310 930 375 893 344 913 b 209 968 277 945 242 968 b 125 922 174 968 145 948 b 89 826 104 894 93 859 l 141 826 "},"7":{"x_min":43.5625,"x_max":524.03125,"ha":617,"o":"m 43 893 l 441 893 l 136 0 l 231 0 l 524 879 l 524 968 l 43 968 l 43 893 "},"K":{"x_min":106.171875,"x_max":660.140625,"ha":694,"o":"m 193 0 l 193 513 l 196 513 l 551 0 l 660 0 l 281 534 l 649 1002 l 544 1002 l 196 543 l 193 543 l 193 1002 l 106 1002 l 106 0 l 193 0 "},",":{"x_min":74,"x_max":228,"ha":308,"o":"m 74 -145 l 146 -145 l 228 105 l 128 105 l 74 -145 "},"d":{"x_min":57.171875,"x_max":526.75,"ha":617,"o":"m 288 52 b 138 348 200 52 138 87 b 285 648 138 512 138 648 b 439 412 439 648 439 454 l 439 287 b 288 52 439 116 366 52 m 447 0 l 526 0 b 518 138 522 23 518 69 l 518 1002 l 436 1002 l 436 630 l 434 631 b 268 715 392 686 330 715 b 57 351 57 715 57 486 b 266 -13 57 187 68 -13 b 441 87 347 -13 398 20 l 443 88 l 447 0 "},"¨":{"x_min":38.109375,"x_max":340.28125,"ha":386,"o":"m 38 793 l 125 793 l 125 933 l 38 933 l 38 793 m 253 793 l 340 793 l 340 933 l 253 933 l 253 793 "},"Ô":{"x_min":81.671875,"x_max":675.109375,"ha":772,"o":"m 168 500 b 378 946 168 767 171 946 b 588 500 585 946 588 767 b 378 55 588 234 585 55 b 168 500 171 55 168 234 m 81 500 b 378 -19 81 230 84 -19 b 675 500 672 -19 675 230 b 378 1021 675 771 672 1021 b 81 500 84 1021 81 771 m 378 1217 l 491 1075 l 578 1075 l 424 1269 l 333 1269 l 179 1075 l 266 1075 l 378 1217 "},"E":{"x_min":102.078125,"x_max":556.6875,"ha":617,"o":"m 102 1002 l 102 0 l 556 0 l 556 75 l 189 75 l 189 477 l 530 477 l 530 552 l 189 552 l 189 927 l 547 927 l 547 1002 l 102 1002 "},"Y":{"x_min":17.6875,"x_max":662.859375,"ha":694,"o":"m 295 0 l 382 0 l 382 416 l 662 1002 l 575 1002 l 340 504 l 115 1002 l 17 1002 l 295 416 l 295 0 "},"\"":{"x_min":99.359375,"x_max":321.21875,"ha":429,"o":"m 99 715 l 170 715 l 170 1002 l 99 1002 l 99 715 m 250 715 l 321 715 l 321 1002 l 250 1002 l 250 715 "},"‹":{"x_min":53.875,"x_max":247,"ha":308,"o":"m 172 125 l 244 125 l 140 394 l 247 663 l 176 663 l 53 394 l 172 125 "},"˙":{"x_min":145.640625,"x_max":232.75,"ha":386,"o":"m 145 793 l 232 793 l 232 933 l 145 933 l 145 793 "},"ê":{"x_min":65.15625,"x_max":538.84375,"ha":617,"o":"m 538 333 b 302 715 538 541 538 715 b 65 419 148 715 65 622 l 65 247 b 302 -13 65 34 183 -13 b 538 213 439 -13 529 44 l 453 213 b 302 52 454 119 404 52 b 146 279 172 52 146 181 l 146 333 l 538 333 m 146 399 b 302 648 146 555 171 648 b 457 399 432 648 457 555 l 146 399 m 302 916 l 414 774 l 502 774 l 348 968 l 257 968 l 103 774 l 190 774 l 302 916 "},"Ï":{"x_min":0,"x_max":302.171875,"ha":308,"o":"m 107 1002 l 107 0 l 194 0 l 194 1002 l 107 1002 m 0 1094 l 87 1094 l 87 1234 l 0 1234 l 0 1094 m 215 1094 l 302 1094 l 302 1234 l 215 1234 l 215 1094 "},"„":{"x_min":87,"x_max":442,"ha":540,"o":"m 87 -145 l 159 -145 l 240 105 l 141 105 l 87 -145 m 288 -145 l 360 -145 l 442 105 l 342 105 l 288 -145 "},"Â":{"x_min":18,"x_max":738,"ha":772,"o":"m 328 1002 l 18 0 l 105 0 l 182 263 l 567 263 l 646 0 l 738 0 l 431 1002 l 328 1002 m 208 338 l 374 905 l 377 905 l 544 338 l 208 338 m 378 1217 l 491 1075 l 578 1075 l 424 1269 l 333 1269 l 179 1075 l 267 1075 l 378 1217 "},"Í":{"x_min":63.96875,"x_max":326.671875,"ha":308,"o":"m 107 1002 l 107 0 l 194 0 l 194 1002 l 107 1002 m 63 1079 l 132 1079 l 326 1269 l 217 1269 l 63 1079 "},"´":{"x_min":102,"x_max":365,"ha":386,"o":"m 102 777 l 170 777 l 365 968 l 255 968 l 102 777 "},"ì":{"x_min":-24.5,"x_max":238.1875,"ha":308,"o":"m 191 0 l 191 701 l 110 701 l 110 0 l 191 0 m 238 777 l 84 968 l -24 968 l 170 777 l 238 777 "},"±":{"x_min":27.21875,"x_max":577.109375,"ha":617,"o":"m 266 387 l 266 145 l 337 145 l 337 387 l 577 387 l 577 459 l 337 459 l 337 701 l 266 701 l 266 459 l 27 459 l 27 387 l 266 387 m 577 72 l 27 72 l 27 0 l 577 0 l 577 72 "},"Ú":{"x_min":91.1875,"x_max":665.578125,"ha":772,"o":"m 178 1002 l 91 1002 l 91 306 b 378 -19 91 48 224 -19 b 665 306 532 -19 665 48 l 665 1002 l 578 1002 l 578 372 b 378 55 578 241 578 55 b 178 372 178 55 178 241 l 178 1002 m 291 1079 l 359 1079 l 553 1269 l 445 1269 l 291 1079 "},"|":{"x_min":115.6875,"x_max":186.46875,"ha":308,"o":"m 115 -347 l 186 -347 l 186 1041 l 115 1041 l 115 -347 "},"§":{"x_min":88.46875,"x_max":515.859375,"ha":617,"o":"m 104 6 b 292 -19 133 0 197 -19 b 515 165 428 -19 515 52 b 370 354 515 263 450 316 b 511 525 426 393 511 447 b 193 861 511 708 193 708 b 315 955 193 929 259 955 b 472 911 368 955 421 933 l 472 988 b 322 1022 423 1011 372 1022 b 106 855 217 1022 106 981 b 243 665 106 762 172 708 b 88 498 181 629 88 600 b 428 166 88 337 428 309 b 279 47 428 81 352 47 b 104 86 224 47 155 66 l 104 6 m 310 386 b 175 512 261 412 175 447 b 303 631 175 566 269 611 b 424 519 348 609 424 580 b 310 386 424 461 349 419 "},"Ý":{"x_min":17.6875,"x_max":662.859375,"ha":694,"o":"m 295 0 l 382 0 l 382 416 l 662 1002 l 575 1002 l 340 504 l 115 1002 l 17 1002 l 295 416 l 295 0 m 253 1079 l 321 1079 l 515 1269 l 406 1269 l 253 1079 "},"b":{"x_min":77.578125,"x_max":550.21875,"ha":617,"o":"m 164 361 b 313 648 164 466 181 648 b 468 348 464 648 468 512 b 313 52 468 184 464 52 b 164 361 164 52 164 250 m 161 0 l 161 84 l 164 84 b 337 -13 198 19 257 -13 b 549 351 537 -13 549 197 b 344 715 549 476 567 715 b 170 619 266 715 212 686 l 167 622 l 167 1002 l 85 1002 l 85 69 b 77 0 85 45 81 23 l 161 0 "},"q":{"x_min":54.109375,"x_max":526.75,"ha":617,"o":"m 284 52 b 136 361 136 52 136 250 b 284 648 136 466 152 648 b 439 348 435 648 439 512 b 284 52 439 184 435 52 m 442 701 l 442 611 l 439 611 b 266 715 405 681 347 715 b 54 350 66 715 54 504 b 259 -13 54 225 36 -13 b 434 81 337 -13 392 15 l 436 79 l 436 -265 l 518 -265 l 518 631 b 526 701 518 655 522 677 l 442 701 "},"Ω":{"x_min":57.171875,"x_max":720.03125,"ha":794,"o":"m 221 70 l 57 70 l 57 0 l 313 0 l 313 51 b 149 506 230 127 149 312 b 390 905 149 733 242 905 b 627 508 552 905 626 687 b 462 51 627 301 549 133 l 462 0 l 720 0 l 720 70 l 553 70 l 553 75 b 705 526 630 161 705 323 b 393 977 705 781 582 977 b 70 520 210 977 70 802 b 221 75 70 326 140 169 l 221 70 "},"Ö":{"x_min":81.671875,"x_max":675.109375,"ha":772,"o":"m 168 501 b 378 947 168 768 171 947 b 588 501 585 947 588 768 b 378 55 588 234 585 55 b 168 501 171 55 168 234 m 81 501 b 378 -19 81 230 84 -19 b 675 501 672 -19 675 230 b 378 1022 675 772 672 1022 b 81 501 84 1022 81 772 m 227 1094 l 314 1094 l 314 1234 l 227 1234 l 227 1094 m 442 1094 l 529 1094 l 529 1234 l 442 1234 l 442 1094 "},"ﬂ":{"x_min":25.859375,"x_max":500.890625,"ha":617,"o":"m 136 0 l 217 0 l 217 634 l 356 634 l 356 701 l 217 701 l 217 820 b 296 933 217 861 217 933 l 357 933 l 357 1002 b 311 1008 337 1005 323 1008 b 136 819 145 1008 136 886 l 136 701 l 25 701 l 25 634 l 136 634 l 136 0 m 500 0 l 500 1002 l 419 1002 l 419 0 l 500 0 "},"z":{"x_min":38.078125,"x_max":413.734375,"ha":463,"o":"m 38 0 l 413 0 l 413 66 l 127 66 l 406 631 l 406 701 l 54 701 l 54 634 l 323 634 l 38 68 l 38 0 "},"™":{"x_min":6.8125,"x_max":969.109375,"ha":1003,"o":"m 155 401 l 225 401 l 225 947 l 374 947 l 374 1002 l 6 1002 l 6 947 l 155 947 l 155 401 m 504 1002 l 405 1002 l 405 401 l 476 401 l 476 854 l 479 854 l 657 401 l 722 401 l 895 854 l 898 854 l 898 401 l 969 401 l 969 1002 l 876 1002 l 694 511 l 691 511 l 504 1002 "},"ã":{"x_min":51.71875,"x_max":522.671875,"ha":617,"o":"m 432 230 b 262 52 432 138 356 52 b 138 197 178 52 138 118 b 432 358 138 368 315 354 l 432 230 m 438 0 l 522 0 b 514 176 514 81 514 126 l 514 529 b 300 715 514 708 370 715 b 72 527 181 715 78 662 l 159 527 b 294 648 159 611 219 648 b 432 483 402 648 432 586 l 432 425 b 51 193 294 413 51 438 b 240 -13 51 70 118 -13 b 435 86 325 -13 392 19 l 438 86 l 438 0 m 141 826 b 204 901 145 858 168 901 b 299 863 234 901 265 880 b 402 826 333 848 368 826 b 483 873 438 826 465 845 b 514 968 502 901 513 937 l 462 968 b 402 893 458 933 441 893 b 310 930 375 893 344 913 b 209 968 277 945 242 968 b 125 922 174 968 145 948 b 89 826 104 894 93 859 l 141 826 "},"æ":{"x_min":51.71875,"x_max":906.5,"ha":1003,"o":"m 138 188 b 438 347 138 359 306 340 b 287 52 445 238 432 52 b 138 188 197 52 138 94 m 514 413 b 669 648 514 555 573 648 b 824 413 800 648 824 555 l 514 413 m 906 347 b 669 715 905 534 909 715 b 490 608 598 715 525 673 b 300 715 461 683 377 715 b 72 527 181 715 78 662 l 159 527 b 294 648 159 610 219 648 b 438 413 436 648 438 523 b 51 183 264 413 51 422 b 280 -14 51 48 157 -14 b 476 110 374 -14 438 24 b 669 -14 499 30 581 -14 b 906 213 807 -14 896 44 l 820 213 b 669 52 822 119 771 52 b 514 279 540 52 514 181 l 514 347 l 906 347 "},"®":{"x_min":47.4375,"x_max":1041.234375,"ha":1111,"o":"m 544 -19 b 1041 501 819 -19 1041 213 b 544 1022 1041 787 819 1022 b 47 501 270 1022 47 787 b 544 -19 47 213 270 -19 m 544 47 b 112 501 303 47 112 248 b 544 955 112 755 303 955 b 975 501 786 955 975 755 b 544 47 975 248 786 47 m 544 476 b 649 351 666 476 647 376 b 658 201 650 318 653 218 l 728 201 b 719 270 724 225 719 247 b 621 512 719 486 709 495 l 621 515 b 734 658 707 533 734 583 b 556 813 734 763 692 813 l 365 813 l 365 201 l 436 201 l 436 476 l 544 476 m 436 747 l 552 747 b 653 659 619 747 653 730 b 529 543 653 563 613 543 l 436 543 l 436 747 "},"É":{"x_min":102.078125,"x_max":556.6875,"ha":617,"o":"m 102 1002 l 102 0 l 556 0 l 556 75 l 189 75 l 189 477 l 530 477 l 530 552 l 189 552 l 189 927 l 547 927 l 547 1002 l 102 1002 m 215 1079 l 283 1079 l 477 1269 l 368 1269 l 215 1079 "},"~":{"x_min":27.109375,"x_max":577,"ha":617,"o":"m 73 256 b 183 350 97 297 126 350 b 276 322 216 350 247 333 b 423 277 312 308 382 277 b 577 390 495 277 544 336 l 532 445 b 423 352 510 401 472 352 b 311 388 395 352 355 370 b 183 425 269 406 223 425 b 27 305 107 425 62 362 l 73 256 "},"³":{"x_min":14.78125,"x_max":333.46875,"ha":369,"o":"m 136 672 b 265 540 236 680 265 640 b 171 440 265 488 242 440 b 83 536 111 440 81 472 l 14 536 b 179 384 10 431 72 384 b 333 551 280 384 333 444 b 230 697 333 619 315 684 l 230 700 b 326 841 308 712 326 773 b 166 983 326 944 269 983 b 23 831 69 983 17 918 l 91 831 b 172 927 88 893 112 927 b 258 834 230 927 258 887 b 136 727 258 748 227 720 l 136 672 "},"¡":{"x_min":175.578125,"x_max":276.3125,"ha":463,"o":"m 175 609 l 276 609 l 276 715 l 175 715 l 175 609 m 191 479 l 179 -265 l 274 -265 l 262 479 l 191 479 "},"[":{"x_min":68.0625,"x_max":257.25,"ha":308,"o":"m 68 -181 l 257 -181 l 257 -115 l 149 -115 l 149 966 l 257 966 l 257 1033 l 68 1033 l 68 -181 "},"L":{"x_min":91.1875,"x_max":503.609375,"ha":540,"o":"m 503 0 l 503 75 l 178 75 l 178 1002 l 91 1002 l 91 0 l 503 0 "}," ":{"x_min":0,"x_max":0,"ha":308},"∑":{"x_min":30.125,"x_max":590.9375,"ha":628,"o":"m 590 -133 l 590 -52 l 124 -52 l 124 -48 l 422 426 l 148 886 l 148 891 l 570 891 l 570 962 l 43 962 l 43 904 l 335 413 l 30 -75 l 30 -133 l 590 -133 "},"%":{"x_min":102.078125,"x_max":956.859375,"ha":1081,"o":"m 279 477 b 455 747 435 477 455 622 b 279 983 455 869 415 983 b 102 722 125 983 102 847 b 279 477 102 595 132 477 m 279 544 b 172 730 178 544 172 656 b 279 916 172 805 183 916 b 385 730 374 916 385 805 b 279 544 385 656 379 544 m 779 -15 b 956 254 936 -15 956 129 b 779 490 956 376 916 490 b 602 229 626 490 602 354 b 779 -15 602 102 632 -15 m 779 51 b 673 237 679 51 673 163 b 779 423 673 312 684 423 b 886 237 875 423 886 312 b 779 51 886 163 880 51 m 348 -54 l 762 1002 l 699 1002 l 285 -54 l 348 -54 "},"P":{"x_min":87.109375,"x_max":573.03125,"ha":617,"o":"m 87 0 l 174 0 l 174 466 l 340 466 b 573 759 509 466 573 558 b 356 1002 573 991 438 1002 l 87 1002 l 87 0 m 174 927 l 334 927 b 485 743 413 927 485 913 b 336 541 485 586 427 541 l 174 541 l 174 927 "},"∏":{"x_min":32.671875,"x_max":735,"ha":785,"o":"m 735 886 l 735 962 l 32 962 l 32 886 l 148 886 l 148 -133 l 224 -133 l 224 886 l 543 886 l 543 -133 l 619 -133 l 619 886 l 735 886 "},"À":{"x_min":18,"x_max":738,"ha":772,"o":"m 328 1002 l 18 0 l 105 0 l 182 263 l 567 263 l 646 0 l 738 0 l 431 1002 l 328 1002 m 208 338 l 374 905 l 377 905 l 544 338 l 208 338 m 465 1079 l 311 1269 l 203 1269 l 397 1079 l 465 1079 "},"_":{"x_min":0,"x_max":680.5625,"ha":694,"o":"m 680 -173 l 680 -104 l 0 -104 l 0 -173 l 680 -173 "},"ñ":{"x_min":83.03125,"x_max":521.3125,"ha":617,"o":"m 164 440 b 313 648 164 597 239 648 b 439 490 408 648 439 572 l 439 0 l 521 0 l 521 494 b 333 715 521 586 503 715 b 167 615 259 715 206 673 l 164 615 l 164 701 l 83 701 l 83 0 l 164 0 l 164 440 m 141 826 b 204 901 145 858 168 901 b 299 863 234 901 265 880 b 402 826 333 848 368 826 b 483 873 438 826 465 845 b 514 968 502 901 513 937 l 462 968 b 402 893 458 933 441 893 b 310 930 375 893 344 913 b 209 968 277 945 242 968 b 125 922 174 968 145 948 b 89 826 104 894 93 859 l 141 826 "},"+":{"x_min":27.21875,"x_max":577.109375,"ha":617,"o":"m 266 315 l 266 0 l 337 0 l 337 315 l 577 315 l 577 387 l 337 387 l 337 701 l 266 701 l 266 387 l 27 387 l 27 315 l 266 315 "},"‚":{"x_min":74,"x_max":228,"ha":308,"o":"m 74 -145 l 146 -145 l 228 105 l 128 105 l 74 -145 "},"½":{"x_min":66.6875,"x_max":847.96875,"ha":925,"o":"m 847 0 l 847 55 l 607 55 b 846 469 812 337 846 384 b 690 590 846 567 760 590 b 536 438 617 590 536 555 l 600 438 b 690 534 600 499 627 534 b 778 458 737 534 778 523 b 533 56 778 380 665 247 l 533 0 l 847 0 m 145 -40 l 739 1002 l 664 1002 l 69 -40 l 145 -40 m 66 822 b 174 904 106 847 141 873 l 174 392 l 235 392 l 235 973 l 178 973 b 66 883 147 937 107 909 l 66 822 "},"Æ":{"x_min":17.859375,"x_max":1010.09375,"ha":1081,"o":"m 107 0 l 226 263 l 578 263 l 600 0 l 1010 0 l 1010 75 l 682 75 l 648 477 l 978 477 l 978 552 l 641 552 l 605 927 l 995 927 l 995 1002 l 468 1002 l 17 0 l 107 0 m 517 936 l 520 936 l 571 338 l 260 338 l 517 936 "},"Ë":{"x_min":102.078125,"x_max":556.6875,"ha":617,"o":"m 102 1002 l 102 0 l 556 0 l 556 75 l 189 75 l 189 477 l 530 477 l 530 552 l 189 552 l 189 927 l 547 927 l 547 1002 l 102 1002 m 151 1094 l 238 1094 l 238 1234 l 151 1234 l 151 1094 m 366 1094 l 453 1094 l 453 1234 l 366 1234 l 366 1094 "},"'":{"x_min":99.359375,"x_max":170.140625,"ha":275,"o":"m 99 715 l 170 715 l 170 1002 l 99 1002 l 99 715 "},"Š":{"x_min":74.796875,"x_max":606.046875,"ha":694,"o":"m 603 748 b 355 1021 603 892 559 1021 b 88 775 195 1021 87 949 b 288 496 90 675 98 616 b 518 232 430 407 518 369 b 348 55 518 117 463 55 b 165 281 173 55 165 170 l 75 281 b 344 -19 67 85 152 -19 b 606 246 516 -19 606 67 b 361 556 606 441 482 467 b 176 791 249 638 176 642 b 348 946 176 909 242 946 b 514 748 482 946 512 871 l 603 748 m 342 1127 l 229 1269 l 142 1269 l 295 1075 l 386 1075 l 540 1269 l 453 1269 l 342 1127 "},"ª":{"x_min":25.859375,"x_max":332.109375,"ha":369,"o":"m 272 731 b 163 625 272 677 224 625 b 83 712 108 625 83 661 b 272 808 83 815 197 806 l 272 731 m 332 594 b 326 700 326 643 326 669 l 326 911 b 187 1022 326 1019 232 1022 b 39 911 110 1022 43 991 l 96 911 b 183 980 96 961 134 980 b 272 883 254 980 272 945 l 272 850 b 25 709 183 844 25 856 b 149 583 25 631 69 583 b 276 648 204 583 247 605 l 279 648 l 279 594 l 332 594 "},"Œ":{"x_min":85.421875,"x_max":1004.5,"ha":1081,"o":"m 553 73 b 449 69 518 72 484 69 b 172 497 182 69 172 216 b 408 933 172 794 185 933 b 553 922 465 933 524 925 l 553 73 m 641 927 l 994 927 l 994 1002 l 553 1002 b 488 1005 547 1002 519 1004 b 400 1008 457 1006 421 1008 b 85 501 62 1008 85 713 b 424 -5 85 183 87 -5 b 495 -2 453 -5 475 -4 b 553 0 514 -1 533 0 l 1004 0 l 1004 75 l 641 75 l 641 477 l 980 477 l 980 552 l 641 552 l 641 927 "},"˛":{"x_min":54.4375,"x_max":310.328125,"ha":386,"o":"m 194 -1 b 54 -152 107 -31 54 -87 b 209 -266 54 -254 126 -266 b 310 -240 251 -266 292 -251 l 310 -194 b 223 -218 281 -204 253 -218 b 141 -154 185 -218 141 -201 b 262 -1 141 -116 164 -48 l 262 1 l 194 -1 "},"ð":{"x_min":65.21875,"x_max":538.875,"ha":617,"o":"m 152 858 l 195 816 l 323 888 b 443 657 364 859 439 753 l 440 654 b 302 715 421 692 387 715 b 65 426 141 715 65 608 l 65 275 b 302 -13 65 93 141 -13 b 538 275 462 -13 538 93 l 538 415 b 395 930 538 744 480 844 l 510 995 l 468 1037 l 346 968 b 209 1037 303 998 270 1018 l 150 986 b 276 927 223 958 213 963 l 152 858 m 302 649 b 457 351 436 649 457 533 b 302 53 457 168 436 53 b 146 351 167 53 146 168 b 302 649 146 533 167 649 "},"T":{"x_min":19.0625,"x_max":585.28125,"ha":617,"o":"m 258 0 l 345 0 l 345 927 l 585 927 l 585 1002 l 19 1002 l 19 927 l 258 927 l 258 0 "},"š":{"x_min":59.953125,"x_max":468.984375,"ha":540,"o":"m 468 184 b 159 547 468 419 159 372 b 264 648 159 609 205 648 b 384 512 357 648 380 601 l 464 512 b 284 715 464 619 421 715 b 77 540 164 715 77 669 b 387 172 77 308 387 355 b 269 48 387 94 349 48 b 143 208 164 48 143 112 l 59 208 b 265 -13 58 59 117 -13 b 468 184 394 -13 468 52 m 267 826 l 154 968 l 66 968 l 220 774 l 312 774 l 466 968 l 379 968 l 267 826 "},"℮":{"x_min":46.671875,"x_max":1132.828125,"ha":1204,"o":"m 1132 469 l 1132 483 b 588 983 1132 759 890 983 b 46 483 288 983 46 759 b 588 -13 46 208 288 -13 b 1018 179 763 -13 921 62 l 940 179 b 589 13 855 79 731 13 b 257 161 460 13 343 70 b 245 191 250 170 245 180 l 245 463 b 253 469 245 468 248 469 l 1132 469 m 934 505 b 927 497 934 502 931 497 l 253 497 b 245 505 248 497 245 502 l 245 772 b 259 806 245 786 250 798 b 589 952 344 895 461 952 b 920 811 719 952 834 897 b 934 779 928 802 934 790 l 934 505 "},"Þ":{"x_min":87.109375,"x_max":573.03125,"ha":617,"o":"m 87 0 l 174 0 l 174 238 l 340 238 b 573 531 509 238 573 330 b 356 775 573 763 438 775 l 174 775 l 174 1002 l 87 1002 l 87 0 m 174 700 l 334 700 b 485 515 413 700 485 686 b 336 313 485 358 427 313 l 174 313 l 174 700 "},"j":{"x_min":4.078125,"x_max":206.890625,"ha":308,"o":"m 115 701 l 115 -83 b 4 -195 115 -175 104 -202 l 4 -265 b 63 -270 10 -268 34 -270 b 197 -129 181 -270 197 -180 l 197 701 l 115 701 m 206 897 l 206 1002 l 106 1002 l 106 897 l 206 897 "},"1":{"x_min":121.140625,"x_max":368.859375,"ha":617,"o":"m 121 720 b 287 856 181 761 235 806 l 287 0 l 368 0 l 368 968 l 292 968 b 121 816 245 908 183 861 l 121 720 "},"›":{"x_min":54,"x_max":247,"ha":308,"o":"m 128 125 l 247 394 l 124 663 l 54 663 l 160 394 l 56 125 l 128 125 "},"ı":{"x_min":110.25,"x_max":191.921875,"ha":308,"o":"m 191 0 l 191 701 l 110 701 l 110 0 l 191 0 "},"ℓ":{"x_min":35.390625,"x_max":511.78125,"ha":551,"o":"m 473 175 b 325 56 445 120 394 56 b 201 297 255 56 201 119 l 200 350 b 428 851 337 509 428 677 b 295 1061 428 976 383 1061 b 126 743 213 1061 126 988 l 126 362 b 35 268 99 330 68 300 l 62 219 b 126 281 84 240 106 262 l 126 261 b 311 -8 127 109 175 -8 b 511 141 400 -8 468 48 l 473 175 m 200 747 b 295 995 200 930 249 995 b 375 851 352 995 375 941 b 200 438 375 706 299 566 l 200 747 "},"ä":{"x_min":51.71875,"x_max":522.671875,"ha":617,"o":"m 432 230 b 262 52 432 138 356 52 b 138 197 178 52 138 118 b 432 358 138 368 315 354 l 432 230 m 438 0 l 522 0 b 514 176 514 81 514 126 l 514 529 b 300 715 514 708 370 715 b 72 527 181 715 78 662 l 159 527 b 294 648 159 611 219 648 b 432 483 402 648 432 586 l 432 425 b 51 193 294 413 51 438 b 240 -13 51 70 118 -13 b 435 86 325 -13 392 19 l 438 86 l 438 0 m 151 793 l 238 793 l 238 933 l 151 933 l 151 793 m 366 793 l 453 793 l 453 933 l 366 933 l 366 793 "},"<":{"x_min":25.859375,"x_max":579.828125,"ha":617,"o":"m 25 320 l 579 -6 l 579 71 l 96 351 l 96 358 l 579 629 l 579 707 l 25 381 l 25 320 "},"£":{"x_min":16.328125,"x_max":557.0625,"ha":617,"o":"m 541 0 l 541 75 l 208 75 l 208 479 l 412 479 l 412 554 l 208 554 l 208 738 b 343 908 208 836 245 908 b 469 734 453 908 476 831 l 556 734 b 338 983 562 904 509 983 b 126 731 234 983 126 927 l 126 554 l 16 554 l 16 479 l 126 479 l 126 75 l 25 75 l 25 0 l 541 0 "},"¹":{"x_min":66.6875,"x_max":235.46875,"ha":369,"o":"m 66 822 b 174 904 106 847 141 873 l 174 392 l 235 392 l 235 973 l 178 973 b 66 883 147 937 107 909 l 66 822 "},"t":{"x_min":21.78125,"x_max":352.53125,"ha":386,"o":"m 132 634 l 132 133 b 274 -2 132 47 164 -2 b 352 1 300 -2 328 -1 l 352 73 b 288 69 334 70 315 69 b 213 184 223 69 213 91 l 213 634 l 352 634 l 352 701 l 213 701 l 213 881 l 132 845 l 132 701 l 21 701 l 21 634 l 132 634 "},"¬":{"x_min":27.21875,"x_max":577.109375,"ha":617,"o":"m 27 511 l 27 438 l 506 438 l 506 129 l 577 129 l 577 511 l 27 511 "},"ù":{"x_min":88.15625,"x_max":515.546875,"ha":617,"o":"m 433 701 l 433 206 b 284 52 433 158 394 52 b 169 219 165 52 169 200 l 169 701 l 88 701 l 88 205 b 269 -13 88 91 127 -13 b 442 77 345 -13 394 18 l 444 77 l 444 0 l 515 0 l 515 701 l 433 701 m 388 777 l 235 968 l 126 968 l 320 777 l 388 777 "},"W":{"x_min":14,"x_max":1121,"ha":1157,"o":"m 308 116 l 305 116 l 106 1002 l 14 1002 l 250 0 l 359 0 l 562 891 l 565 891 l 762 0 l 877 0 l 1121 1002 l 1035 1002 l 825 123 l 822 123 l 625 1002 l 508 1002 l 308 116 "},"ï":{"x_min":0,"x_max":302.171875,"ha":308,"o":"m 191 0 l 191 701 l 110 701 l 110 0 l 191 0 m 0 793 l 87 793 l 87 933 l 0 933 l 0 793 m 215 793 l 302 793 l 302 933 l 215 933 l 215 793 "},">":{"x_min":25.859375,"x_max":579.828125,"ha":617,"o":"m 579 381 l 25 707 l 25 629 l 509 358 l 509 351 l 25 71 l 25 -6 l 579 320 l 579 381 "},"v":{"x_min":14,"x_max":516,"ha":540,"o":"m 102 701 l 14 701 l 218 0 l 311 0 l 516 701 l 437 701 l 269 105 l 267 105 l 102 701 "},"û":{"x_min":88.0625,"x_max":515.9375,"ha":617,"o":"m 434 701 l 434 206 b 284 52 434 158 394 52 b 169 219 165 52 169 199 l 169 701 l 88 701 l 88 205 b 269 -13 88 91 127 -13 b 442 77 345 -13 394 18 l 445 77 l 445 0 l 515 0 l 515 701 l 434 701 m 302 916 l 415 774 l 502 774 l 348 968 l 257 968 l 103 774 l 190 774 l 302 916 "},"Ò":{"x_min":81.671875,"x_max":675.109375,"ha":772,"o":"m 168 501 b 378 947 168 768 171 947 b 588 501 585 947 588 768 b 378 55 588 234 585 55 b 168 501 171 55 168 234 m 81 501 b 378 -19 81 230 84 -19 b 675 501 672 -19 675 230 b 378 1022 675 772 672 1022 b 81 501 84 1022 81 772 m 465 1079 l 311 1269 l 202 1269 l 397 1079 l 465 1079 "},"&":{"x_min":79.515625,"x_max":813.15625,"ha":849,"o":"m 572 169 b 376 55 535 97 453 55 b 166 263 242 55 166 122 b 310 491 166 383 219 425 l 572 169 m 328 598 b 221 819 268 670 221 719 b 353 947 221 902 274 947 b 472 815 440 947 472 895 b 328 598 472 712 403 654 m 701 0 l 813 0 l 671 176 b 728 562 721 308 728 486 l 647 562 b 611 252 647 486 634 327 l 380 538 b 559 809 471 616 559 676 b 359 1022 559 972 482 1022 b 133 801 208 1022 133 955 b 259 551 133 686 192 634 b 79 262 144 463 79 418 b 339 -19 79 47 210 -19 b 628 100 459 -19 547 1 l 701 0 "},"˝":{"x_min":0,"x_max":440,"ha":386,"o":"m 0 777 l 68 777 l 262 968 l 153 968 l 0 777 m 177 777 l 245 777 l 440 968 l 331 968 l 177 777 "},"Ð":{"x_min":19.0625,"x_max":671.03125,"ha":772,"o":"m 102 0 l 326 0 b 671 497 623 0 671 163 b 362 1002 671 838 637 1002 l 102 1002 l 102 588 l 19 588 l 19 513 l 102 513 l 102 0 m 189 927 l 303 927 b 583 556 545 927 583 844 b 295 75 583 147 558 75 l 189 75 l 189 513 l 396 513 l 396 588 l 189 588 l 189 927 "},"I":{"x_min":107.53125,"x_max":194.640625,"ha":308,"o":"m 107 1002 l 107 0 l 194 0 l 194 1002 l 107 1002 "},"ˉ":{"x_min":12.25,"x_max":366.140625,"ha":386,"o":"m 12 900 l 12 833 l 366 833 l 366 900 l 12 900 "},"G":{"x_min":81.296875,"x_max":658.90625,"ha":772,"o":"m 562 84 b 378 55 515 66 453 55 b 168 501 166 55 168 248 b 378 947 168 754 166 947 b 571 745 515 947 571 877 l 658 745 b 378 1022 662 940 566 1022 b 81 501 58 1022 81 695 b 378 -19 81 306 58 -19 b 649 22 470 -19 562 -5 l 649 523 l 363 523 l 363 448 l 562 448 l 562 84 "},"`":{"x_min":14,"x_max":277,"ha":386,"o":"m 277 777 l 123 968 l 14 968 l 208 777 l 277 777 "},"·":{"x_min":100.71875,"x_max":201.4375,"ha":308,"o":"m 100 298 l 201 298 l 201 404 l 100 404 l 100 298 "},"r":{"x_min":88.46875,"x_max":362.0625,"ha":386,"o":"m 170 701 l 88 701 l 88 0 l 170 0 l 170 451 b 362 630 170 569 246 640 l 362 715 b 172 606 279 715 206 673 l 170 606 l 170 701 "},"¿":{"x_min":96.640625,"x_max":478.140625,"ha":540,"o":"m 245 479 l 245 348 b 96 -75 245 190 96 187 b 291 -306 96 -231 133 -306 b 477 -75 434 -306 483 -208 l 390 -75 b 289 -231 393 -151 382 -231 b 183 -76 187 -231 183 -166 b 326 358 183 179 326 129 l 326 479 l 245 479 m 235 609 l 336 609 l 336 715 l 235 715 l 235 609 "},"ý":{"x_min":14,"x_max":516,"ha":540,"o":"m 151 -265 l 231 -265 l 516 701 l 434 701 l 272 126 l 269 126 l 102 701 l 14 701 l 231 -1 l 151 -265 m 178 777 l 246 777 l 441 968 l 332 968 l 178 777 "},"x":{"x_min":15,"x_max":515,"ha":540,"o":"m 15 0 l 106 0 l 264 304 l 415 0 l 515 0 l 316 377 l 495 701 l 406 701 l 269 437 l 144 701 l 46 701 l 216 373 l 15 0 "},"è":{"x_min":65.25,"x_max":538.921875,"ha":617,"o":"m 538 333 b 302 715 538 541 538 715 b 65 419 148 715 65 622 l 65 247 b 302 -13 65 34 183 -13 b 538 213 439 -13 529 44 l 453 213 b 302 52 454 119 404 52 b 146 279 172 52 146 181 l 146 333 l 538 333 m 146 400 b 302 648 146 555 171 648 b 457 400 432 648 457 555 l 146 400 m 389 777 l 235 968 l 126 968 l 321 777 l 389 777 "},"º":{"x_min":25.4375,"x_max":335.25,"ha":369,"o":"m 179 583 b 334 802 351 583 334 725 b 179 1022 334 879 351 1022 b 25 802 9 1022 25 879 b 179 583 25 725 9 583 m 179 625 b 80 802 81 625 80 704 b 179 980 80 900 81 980 b 280 802 279 980 280 900 b 179 625 280 704 279 625 "},"Ø":{"x_min":60.15625,"x_max":696.84375,"ha":772,"o":"m 186 211 b 169 501 167 287 169 388 b 378 947 169 754 166 947 b 544 859 464 947 515 915 l 186 211 m 568 791 b 588 501 588 715 588 613 b 378 55 588 248 590 55 b 212 143 291 55 241 87 l 568 791 m 167 62 b 378 -19 212 12 279 -19 b 675 501 698 -19 675 306 b 623 890 675 616 683 779 l 696 1025 l 651 1054 l 589 940 b 378 1022 543 990 477 1022 b 81 501 58 1022 81 695 b 133 113 81 386 73 225 l 60 -18 l 110 -43 l 167 62 "},"∞":{"x_min":58.53125,"x_max":857.5,"ha":936,"o":"m 857 402 b 687 587 857 512 789 587 b 464 441 586 587 526 512 b 242 587 401 518 333 587 b 58 397 136 587 58 506 b 235 211 58 291 137 211 b 460 354 332 211 397 281 b 677 211 543 258 602 211 b 857 401 771 211 857 286 l 857 402 m 242 263 b 115 395 167 263 115 322 b 234 534 115 469 157 534 b 430 394 321 534 375 462 b 243 263 379 340 321 263 l 242 263 m 680 534 b 801 397 749 534 801 486 b 681 263 801 331 758 263 b 492 400 616 263 571 312 b 679 534 533 443 598 534 l 680 534 "},"μ":{"x_min":88.46875,"x_max":515.859375,"ha":617,"o":"m 434 701 l 434 206 b 284 52 434 158 394 52 b 170 219 166 52 170 200 l 170 701 l 88 701 l 88 -265 l 170 -265 l 170 11 b 269 -13 181 2 215 -13 b 442 77 345 -13 394 18 l 445 77 l 445 0 l 515 0 l 515 701 l 434 701 "},"÷":{"x_min":27.21875,"x_max":577.109375,"ha":617,"o":"m 27 387 l 27 315 l 577 315 l 577 387 l 27 387 m 251 595 l 352 595 l 352 701 l 251 701 l 251 595 m 251 1 l 352 1 l 352 106 l 251 106 l 251 1 "},"h":{"x_min":83.03125,"x_max":521.3125,"ha":617,"o":"m 164 0 l 164 440 b 313 648 164 597 239 648 b 439 490 408 648 439 572 l 439 0 l 521 0 l 521 494 b 333 715 521 586 503 715 b 167 615 259 715 206 673 l 164 615 l 164 1002 l 83 1002 l 83 0 l 164 0 "},".":{"x_min":100.71875,"x_max":201.4375,"ha":308,"o":"m 100 0 l 201 0 l 201 105 l 100 105 l 100 0 "},";":{"x_min":54.4375,"x_max":208.25,"ha":308,"o":"m 54 -145 l 126 -145 l 208 105 l 108 105 l 54 -145 m 100 595 l 201 595 l 201 701 l 100 701 l 100 595 "},"f":{"x_min":25.859375,"x_max":357.96875,"ha":386,"o":"m 136 0 l 217 0 l 217 634 l 356 634 l 356 701 l 217 701 l 217 820 b 296 933 217 861 217 933 l 357 933 l 357 1002 b 311 1008 337 1005 323 1008 b 136 819 145 1008 136 886 l 136 701 l 25 701 l 25 634 l 136 634 l 136 0 "},"“":{"x_min":87,"x_max":442,"ha":540,"o":"m 240 1002 l 168 1002 l 87 751 l 186 751 l 240 1002 m 442 1002 l 369 1002 l 288 751 l 387 751 l 442 1002 "},"A":{"x_min":18,"x_max":738,"ha":772,"o":"m 328 1002 l 18 0 l 105 0 l 182 263 l 567 263 l 646 0 l 738 0 l 431 1002 l 328 1002 m 208 338 l 374 905 l 377 905 l 544 338 l 208 338 "},"6":{"x_min":61.25,"x_max":544.640625,"ha":617,"o":"m 457 311 b 303 59 457 195 450 59 b 142 302 123 59 142 294 b 310 534 142 468 210 534 b 457 311 421 534 457 461 m 534 752 b 314 983 532 904 461 983 b 61 631 104 983 61 866 l 61 315 b 314 -15 61 122 83 -15 b 544 336 522 -15 544 147 b 332 609 544 365 559 609 b 145 504 249 609 181 575 l 142 502 l 142 587 b 308 908 142 734 145 908 b 447 752 404 908 442 848 l 534 752 "},"‘":{"x_min":74,"x_max":228,"ha":308,"o":"m 228 1002 l 155 1002 l 74 751 l 173 751 l 228 1002 "},"π":{"x_min":14.96875,"x_max":600.25,"ha":640,"o":"m 592 641 l 600 715 l 171 715 b 14 681 87 715 40 700 l 28 627 b 148 641 49 634 78 641 b 66 0 144 447 111 148 l 142 0 b 225 641 185 134 219 454 l 427 641 l 427 184 b 446 0 427 77 435 20 l 519 0 b 503 191 511 33 503 83 l 503 641 l 592 641 "},"O":{"x_min":81.671875,"x_max":675.109375,"ha":772,"o":"m 168 501 b 378 947 168 768 171 947 b 588 501 585 947 588 768 b 378 55 588 234 585 55 b 168 501 171 55 168 234 m 81 501 b 378 -19 81 230 84 -19 b 675 501 672 -19 675 230 b 378 1022 675 772 672 1022 b 81 501 84 1022 81 772 "},"n":{"x_min":83.03125,"x_max":521.3125,"ha":617,"o":"m 164 440 b 313 648 164 597 239 648 b 439 490 408 648 439 572 l 439 0 l 521 0 l 521 494 b 333 715 521 586 503 715 b 167 615 259 715 206 673 l 164 615 l 164 701 l 83 701 l 83 0 l 164 0 l 164 440 "},"3":{"x_min":46.0625,"x_max":536.28125,"ha":617,"o":"m 232 464 b 449 244 405 477 449 411 b 287 59 449 141 413 59 b 133 237 179 59 130 132 l 46 237 b 299 -15 40 64 134 -15 b 536 264 454 -15 536 86 b 378 500 536 377 510 486 l 378 502 b 526 747 498 532 526 634 b 279 983 526 919 438 983 b 59 732 130 983 50 875 l 147 732 b 289 908 142 832 181 908 b 439 736 397 908 439 841 b 232 539 439 591 372 526 l 232 464 "},"9":{"x_min":58.765625,"x_max":544.671875,"ha":617,"o":"m 294 456 b 145 686 162 456 145 579 b 299 908 145 797 164 908 b 457 675 456 908 457 795 b 294 456 457 611 452 456 m 286 381 b 460 466 354 381 419 406 l 463 466 b 292 59 456 166 465 59 b 156 215 193 59 155 119 l 69 215 b 303 -15 73 51 144 -15 b 544 488 539 -15 544 136 l 544 608 b 296 983 544 841 536 983 b 58 686 106 983 58 855 b 286 381 58 480 117 381 "},"l":{"x_min":110.25,"x_max":191.921875,"ha":308,"o":"m 191 0 l 191 1002 l 110 1002 l 110 0 l 191 0 "},"¤":{"x_min":-4,"x_max":608,"ha":617,"o":"m 119 148 b 302 86 172 109 229 86 b 484 148 374 86 431 109 l 538 94 l 602 161 l 549 213 b 608 398 588 272 608 327 b 549 587 608 472 591 527 l 602 641 l 538 706 l 484 653 b 302 715 429 695 364 715 b 119 653 239 715 174 695 l 65 706 l 1 641 l 54 587 b -4 398 12 527 -4 472 b 54 213 -4 327 15 272 l 1 161 l 65 94 l 119 148 m 302 161 b 83 398 167 159 81 290 b 302 640 84 542 160 637 b 520 398 443 637 519 542 b 302 161 522 290 436 159 "},"∂":{"x_min":51.71875,"x_max":547.171875,"ha":618,"o":"m 115 945 b 261 1009 147 977 194 1009 b 472 598 375 1009 472 845 b 470 545 472 583 472 559 l 469 545 b 292 658 449 587 389 658 b 51 302 168 658 51 519 b 259 -8 51 127 122 -8 b 547 566 446 -8 547 211 b 268 1081 547 936 406 1081 b 87 1009 182 1081 125 1044 l 115 945 m 266 62 b 129 302 182 62 129 154 b 302 587 129 459 206 587 b 462 448 386 587 443 512 b 268 62 449 236 375 62 l 266 62 "},"4":{"x_min":38.5,"x_max":572.0625,"ha":617,"o":"m 112 316 l 376 884 l 378 884 l 378 316 l 112 316 m 460 968 l 331 968 l 38 322 l 38 241 l 378 241 l 378 0 l 460 0 l 460 241 l 572 241 l 572 316 l 460 316 l 460 968 "},"p":{"x_min":85.75,"x_max":549.890625,"ha":617,"o":"m 167 413 b 313 648 167 587 259 648 b 468 351 447 648 468 533 b 313 52 468 168 447 52 b 167 288 238 52 167 129 l 167 413 m 164 701 l 85 701 l 85 -265 l 167 -265 l 167 79 l 170 77 b 313 -13 212 11 262 -13 b 549 275 488 -13 549 93 l 549 431 b 333 715 549 523 548 715 b 167 618 279 715 210 686 l 164 616 l 164 701 "},"‡":{"x_min":69.421875,"x_max":534.921875,"ha":617,"o":"m 343 1002 l 261 1002 l 261 776 l 69 776 l 69 709 l 261 709 l 261 293 l 69 293 l 69 226 l 261 226 l 261 0 l 343 0 l 343 226 l 534 226 l 534 293 l 343 293 l 343 709 l 534 709 l 534 776 l 343 776 l 343 1002 "},"à":{"x_min":51.90625,"x_max":522.84375,"ha":617,"o":"m 433 230 b 262 52 433 138 356 52 b 139 197 178 52 139 118 b 433 358 139 368 315 354 l 433 230 m 438 0 l 522 0 b 514 176 514 81 514 126 l 514 529 b 300 715 514 708 370 715 b 72 527 181 715 79 662 l 159 527 b 294 648 159 611 219 648 b 433 483 403 648 433 586 l 433 425 b 51 193 294 413 51 438 b 241 -13 51 70 118 -13 b 435 86 325 -13 392 19 l 438 86 l 438 0 m 389 777 l 235 968 l 126 968 l 321 777 l 389 777 "},"Ü":{"x_min":91.1875,"x_max":665.578125,"ha":772,"o":"m 178 1002 l 91 1002 l 91 306 b 378 -19 91 48 224 -19 b 665 306 532 -19 665 48 l 665 1002 l 578 1002 l 578 372 b 378 55 578 241 578 55 b 178 372 178 55 178 241 l 178 1002 m 227 1094 l 314 1094 l 314 1234 l 227 1234 l 227 1094 m 442 1094 l 529 1094 l 529 1234 l 442 1234 l 442 1094 "},"ó":{"x_min":65.078125,"x_max":538.75,"ha":617,"o":"m 301 -13 b 538 275 462 -13 538 93 l 538 426 b 301 715 538 608 462 715 b 65 426 141 715 65 608 l 65 275 b 301 -13 65 93 141 -13 m 301 648 b 457 351 436 648 457 533 b 301 52 457 168 436 52 b 146 351 167 52 146 168 b 301 648 146 533 167 648 m 214 777 l 282 777 l 477 968 l 368 968 l 214 777 "},"√":{"x_min":39,"x_max":641,"ha":665,"o":"m 641 1144 l 583 1144 l 372 9 b 357 -92 367 -25 360 -67 l 356 -92 b 335 14 352 -67 344 -21 l 191 519 l 39 460 l 55 407 l 139 439 l 323 -210 l 393 -210 l 641 1144 "}}}
